<svg xmlns="http://www.w3.org/2000/svg" xmlns:xlink="http://www.w3.org/1999/xlink" width="400" zoomAndPan="magnify" viewBox="0 0 300 299.999988" height="400" preserveAspectRatio="xMidYMid meet" version="1.0"><defs><g/><clipPath id="7359451ed2"><path d="M 153 7.183594 L 178 7.183594 L 178 69 L 153 69 Z M 153 7.183594 " clip-rule="nonzero"/></clipPath><clipPath id="8eddee41a3"><path d="M 122 7.183594 L 147 7.183594 L 147 69 L 122 69 Z M 122 7.183594 " clip-rule="nonzero"/></clipPath><clipPath id="bb8db9c74c"><path d="M 66.039062 60 L 132 60 L 132 86 L 66.039062 86 Z M 66.039062 60 " clip-rule="nonzero"/></clipPath><clipPath id="bf1b8a585f"><path d="M 66.039062 90 L 132 90 L 132 116 L 66.039062 116 Z M 66.039062 90 " clip-rule="nonzero"/></clipPath><clipPath id="b6c9ea1b59"><path d="M 153 107 L 178 107 L 178 169.183594 L 153 169.183594 Z M 153 107 " clip-rule="nonzero"/></clipPath><clipPath id="6140917ef1"><path d="M 122 107 L 147 107 L 147 169.183594 L 122 169.183594 Z M 122 107 " clip-rule="nonzero"/></clipPath></defs><g clip-path="url(#7359451ed2)"><path fill="#93960b" d="M 157.261719 64.6875 L 157.261719 53.03125 L 167.066406 47.773438 C 170.308594 46.03125 172.875 43.574219 174.636719 40.644531 C 176.394531 37.710938 177.347656 33.882812 177.347656 30.199219 L 177.347656 7.183594 L 174.707031 8.703125 L 163.53125 15.097656 C 160.433594 16.859375 157.976562 19.3125 156.308594 22.191406 C 154.644531 25.085938 153.746094 30.695312 153.746094 34.265625 L 153.746094 45.042969 L 155.414062 44.144531 C 156.585938 43.519531 157.28125 42.367188 157.28125 41.027344 L 157.28125 34.265625 C 157.28125 31.316406 158.015625 28.585938 159.371094 26.242188 C 160.726562 23.894531 162.742188 21.898438 165.308594 20.433594 L 173.847656 15.539062 L 173.847656 30.199219 C 173.847656 33.222656 173.078125 36.042969 171.648438 38.425781 C 170.21875 40.828125 168.113281 42.824219 165.453125 44.253906 L 155.632812 49.511719 C 154.460938 50.136719 153.761719 51.289062 153.761719 52.628906 L 153.761719 68.679688 L 155.429688 67.78125 C 156.585938 67.179688 157.261719 66.023438 157.261719 64.6875 Z M 157.261719 64.6875 " fill-opacity="1" fill-rule="nonzero"/></g><g clip-path="url(#8eddee41a3)"><path fill="#93960b" d="M 132.929688 47.789062 L 142.730469 53.050781 L 142.730469 64.703125 C 142.730469 66.042969 143.410156 67.195312 144.601562 67.820312 L 146.269531 68.71875 L 146.269531 52.664062 C 146.269531 51.328125 145.574219 50.171875 144.398438 49.550781 L 134.578125 44.289062 C 131.921875 42.859375 129.8125 40.863281 128.382812 38.464844 C 126.953125 36.082031 126.183594 33.257812 126.183594 30.234375 L 126.183594 15.574219 L 134.722656 20.46875 C 137.269531 21.933594 139.285156 23.933594 140.660156 26.277344 C 142.015625 28.621094 142.75 31.351562 142.75 34.304688 L 142.75 41.066406 C 142.75 42.402344 143.445312 43.558594 144.621094 44.179688 L 146.285156 45.078125 L 146.285156 34.304688 C 146.285156 30.730469 145.390625 25.121094 143.722656 22.226562 C 142.035156 19.332031 139.597656 16.894531 136.5 15.136719 L 125.324219 8.742188 L 122.683594 7.21875 L 122.683594 30.234375 C 122.683594 33.902344 123.636719 37.730469 125.398438 40.679688 C 127.121094 43.59375 129.683594 46.050781 132.929688 47.789062 Z M 132.929688 47.789062 " fill-opacity="1" fill-rule="nonzero"/></g><path fill="#93960b" d="M 105.074219 58.070312 L 110.261719 61.058594 L 114.421875 63.457031 L 114.476562 61.570312 C 114.511719 60.234375 113.871094 59.058594 112.714844 58.382812 L 112.039062 57.996094 L 106.851562 55.011719 C 104.304688 53.542969 102.289062 51.527344 100.933594 49.183594 C 99.578125 46.835938 98.863281 44.089844 98.882812 41.140625 L 98.917969 31.296875 L 111.617188 38.628906 C 114.238281 40.148438 116.289062 42.21875 117.644531 44.65625 C 119 47.09375 119.699219 49.917969 119.589844 52.941406 L 119.238281 64.082031 C 119.203125 65.417969 119.84375 66.589844 121 67.25 L 134.90625 75.277344 L 134.960938 73.371094 C 135 72.035156 134.359375 70.859375 133.203125 70.203125 L 123.105469 64.375 L 123.453125 53.25 C 123.582031 49.585938 122.738281 46.121094 121.074219 43.136719 C 119.40625 40.148438 116.5625 37.402344 113.394531 35.566406 L 98.039062 26.71875 L 93.4375 24.058594 L 93.421875 27.101562 L 93.367188 39.984375 C 93.347656 43.558594 94.246094 46.894531 95.894531 49.789062 C 97.582031 52.703125 101.976562 56.273438 105.074219 58.070312 Z M 105.074219 58.070312 " fill-opacity="1" fill-rule="nonzero"/><g clip-path="url(#bb8db9c74c)"><path fill="#93960b" d="M 86.015625 82.957031 C 89.1875 84.789062 92.980469 85.867188 96.40625 85.832031 C 99.835938 85.777344 103.242188 84.789062 106.375 82.84375 L 115.832031 76.980469 L 125.929688 82.808594 C 127.082031 83.46875 128.421875 83.449219 129.554688 82.753906 L 131.167969 81.746094 L 117.261719 73.71875 C 116.105469 73.058594 114.769531 73.078125 113.632812 73.773438 L 104.160156 79.65625 C 101.59375 81.25 98.808594 82.074219 96.023438 82.113281 C 93.238281 82.148438 90.414062 81.417969 87.792969 79.914062 L 75.097656 72.582031 L 83.597656 67.636719 C 86.144531 66.152344 88.875 65.402344 91.589844 65.402344 C 94.300781 65.402344 97.03125 66.132812 99.578125 67.597656 L 104.761719 70.585938 L 105.441406 70.972656 C 106.597656 71.648438 107.933594 71.613281 109.070312 70.917969 L 110.683594 69.925781 L 106.523438 67.527344 L 101.335938 64.539062 C 98.238281 62.761719 92.945312 60.726562 89.589844 60.726562 C 86.253906 60.746094 82.921875 61.644531 79.824219 63.441406 L 68.683594 69.925781 L 66.042969 71.464844 L 70.644531 74.121094 Z M 86.015625 82.957031 " fill-opacity="1" fill-rule="nonzero"/></g><path fill="#93960b" d="M 123.089844 112.238281 L 133.183594 106.410156 C 134.339844 105.75 135 104.578125 134.945312 103.242188 L 134.890625 101.335938 L 121 109.359375 C 119.84375 110.039062 119.183594 111.210938 119.222656 112.53125 L 119.570312 123.671875 C 119.660156 126.679688 118.984375 129.519531 117.628906 131.957031 C 116.269531 134.394531 114.21875 136.464844 111.597656 137.984375 L 98.898438 145.3125 L 98.863281 135.472656 C 98.84375 132.523438 99.578125 129.792969 100.914062 127.429688 C 102.269531 125.082031 104.269531 123.085938 106.835938 121.601562 L 112.019531 118.613281 L 112.699219 118.230469 C 113.851562 117.550781 114.511719 116.398438 114.457031 115.042969 L 114.402344 113.15625 L 110.242188 115.554688 L 105.054688 118.542969 C 101.960938 120.320312 97.5625 123.910156 95.894531 126.804688 C 94.226562 129.703125 93.347656 133.035156 93.367188 136.609375 L 93.421875 149.492188 L 93.4375 152.535156 L 98.039062 149.875 L 113.375 141.027344 C 116.546875 139.195312 119.386719 136.445312 121.054688 133.457031 C 122.722656 130.472656 123.5625 127.007812 123.4375 123.34375 Z M 123.089844 112.238281 " fill-opacity="1" fill-rule="nonzero"/><g clip-path="url(#bf1b8a585f)"><path fill="#93960b" d="M 106.523438 109.105469 L 110.683594 106.703125 L 109.070312 105.714844 C 107.933594 105.019531 106.597656 104.980469 105.441406 105.660156 L 104.761719 106.042969 L 99.578125 109.03125 C 97.03125 110.496094 94.28125 111.25 91.589844 111.230469 C 88.875 111.230469 86.144531 110.480469 83.597656 108.996094 L 75.097656 104.046875 L 87.792969 96.71875 C 90.414062 95.195312 93.238281 94.464844 96.023438 94.519531 C 98.808594 94.554688 101.613281 95.378906 104.160156 96.972656 L 113.632812 102.855469 C 114.769531 103.570312 116.105469 103.570312 117.261719 102.910156 L 131.167969 94.882812 L 129.554688 93.875 C 128.421875 93.179688 127.082031 93.164062 125.929688 93.820312 L 115.832031 99.648438 L 106.375 93.785156 C 103.261719 91.84375 99.835938 90.851562 96.40625 90.796875 C 92.980469 90.742188 89.1875 91.824219 86.015625 93.675781 L 70.679688 102.527344 L 66.082031 105.183594 L 68.71875 106.722656 L 79.859375 113.210938 C 82.9375 115.003906 86.273438 115.902344 89.628906 115.921875 C 92.960938 115.921875 98.277344 113.90625 101.375 112.109375 Z M 106.523438 109.105469 " fill-opacity="1" fill-rule="nonzero"/></g><g clip-path="url(#b6c9ea1b59)"><path fill="#93960b" d="M 167.085938 128.820312 L 157.28125 123.5625 L 157.28125 111.925781 C 157.28125 110.589844 156.585938 109.433594 155.414062 108.8125 L 153.746094 107.914062 L 153.746094 123.964844 C 153.746094 125.304688 154.441406 126.457031 155.613281 127.082031 L 165.4375 132.339844 C 168.09375 133.769531 170.199219 135.765625 171.628906 138.167969 C 173.058594 140.550781 173.828125 143.371094 173.828125 146.394531 L 173.828125 161.054688 L 165.289062 156.164062 C 162.742188 154.695312 160.726562 152.71875 159.351562 150.371094 C 157.996094 148.027344 157.261719 145.296875 157.261719 142.34375 L 157.261719 135.582031 C 157.261719 134.246094 156.566406 133.089844 155.394531 132.46875 L 153.726562 131.570312 L 153.726562 142.34375 C 153.726562 145.917969 154.625 151.527344 156.292969 154.421875 C 157.960938 157.316406 160.414062 159.753906 163.511719 161.511719 L 174.691406 167.910156 L 177.328125 169.429688 L 177.328125 146.414062 C 177.328125 142.75 176.375 138.917969 174.617188 135.96875 C 172.894531 133.019531 170.308594 130.5625 167.085938 128.820312 Z M 167.085938 128.820312 " fill-opacity="1" fill-rule="nonzero"/></g><g clip-path="url(#6140917ef1)"><path fill="#93960b" d="M 142.730469 111.925781 L 142.730469 123.582031 L 132.929688 128.839844 C 129.683594 130.5625 127.121094 133.035156 125.359375 135.96875 C 123.601562 138.917969 122.648438 142.75 122.648438 146.414062 L 122.648438 169.429688 L 125.285156 167.910156 L 136.484375 161.511719 C 139.582031 159.753906 142.035156 157.296875 143.703125 154.421875 C 145.371094 151.527344 146.269531 145.917969 146.269531 142.34375 L 146.269531 131.570312 L 144.601562 132.46875 C 143.429688 133.089844 142.730469 134.246094 142.730469 135.582031 L 142.730469 142.34375 C 142.730469 145.296875 142 148.027344 140.644531 150.371094 C 139.285156 152.71875 137.269531 154.714844 134.707031 156.164062 L 126.167969 161.054688 L 126.167969 146.394531 C 126.167969 143.371094 126.9375 140.550781 128.367188 138.167969 C 129.792969 135.765625 131.902344 133.769531 134.558594 132.339844 L 144.382812 127.082031 C 145.554688 126.457031 146.25 125.304688 146.25 123.964844 L 146.25 107.914062 L 144.582031 108.8125 C 143.429688 109.433594 142.730469 110.589844 142.730469 111.925781 Z M 142.730469 111.925781 " fill-opacity="1" fill-rule="nonzero"/></g><path fill="#93960b" d="M 229.316406 102.507812 L 213.976562 93.65625 C 210.808594 91.824219 207.015625 90.726562 203.589844 90.78125 C 200.160156 90.835938 196.753906 91.824219 193.621094 93.765625 L 184.164062 99.628906 L 174.066406 93.804688 C 172.914062 93.144531 171.574219 93.144531 170.4375 93.859375 L 168.828125 94.867188 L 182.734375 102.894531 C 183.890625 103.550781 185.226562 103.535156 186.363281 102.835938 L 195.835938 96.957031 C 198.402344 95.359375 201.1875 94.535156 203.972656 94.5 C 206.757812 94.464844 209.582031 95.195312 212.199219 96.699219 L 224.898438 104.027344 L 216.398438 108.976562 C 213.851562 110.460938 211.121094 111.210938 208.40625 111.210938 C 205.695312 111.210938 202.964844 110.480469 200.417969 109.011719 L 195.230469 106.027344 L 194.554688 105.640625 C 193.398438 104.964844 192.0625 105 190.925781 105.695312 L 189.3125 106.6875 L 193.472656 109.085938 L 198.660156 112.074219 C 201.753906 113.851562 207.050781 115.882812 210.40625 115.882812 C 213.738281 115.867188 217.074219 114.96875 220.171875 113.171875 L 231.3125 106.6875 L 233.953125 105.148438 Z M 229.316406 102.507812 " fill-opacity="1" fill-rule="nonzero"/><path fill="#93960b" d="M 194.921875 118.542969 L 189.734375 115.554688 L 185.574219 113.15625 L 185.539062 115.042969 C 185.5 116.378906 186.144531 117.550781 187.296875 118.230469 L 187.976562 118.613281 L 193.160156 121.601562 C 195.707031 123.066406 197.722656 125.082031 199.0625 127.429688 C 200.417969 129.773438 201.132812 132.523438 201.113281 135.457031 L 201.078125 145.296875 L 188.378906 137.964844 C 185.757812 136.445312 183.707031 134.375 182.351562 131.9375 C 180.992188 129.5 180.296875 126.679688 180.40625 123.65625 L 180.753906 112.511719 C 180.792969 111.175781 180.152344 110.003906 178.976562 109.34375 L 165.070312 101.316406 L 165.015625 103.222656 C 164.976562 104.558594 165.621094 105.734375 166.773438 106.394531 L 176.871094 112.21875 L 176.503906 123.34375 C 176.375 127.007812 177.21875 130.472656 178.886719 133.457031 C 180.554688 136.445312 183.394531 139.195312 186.5625 141.027344 L 201.902344 149.875 L 206.5 152.535156 L 206.519531 149.492188 L 206.574219 136.609375 C 206.59375 133.035156 205.695312 129.703125 204.046875 126.804688 C 202.433594 123.910156 198.015625 120.335938 194.921875 118.542969 Z M 194.921875 118.542969 " fill-opacity="1" fill-rule="nonzero"/><path fill="#93960b" d="M 176.90625 64.375 L 166.808594 70.203125 C 165.65625 70.859375 164.996094 72.035156 165.050781 73.371094 L 165.105469 75.277344 L 179.015625 67.25 C 180.167969 66.574219 180.828125 65.402344 180.792969 64.082031 L 180.445312 52.941406 C 180.351562 49.917969 181.03125 47.09375 182.386719 44.65625 C 183.742188 42.21875 185.777344 40.148438 188.414062 38.628906 L 201.113281 31.296875 L 201.152344 41.140625 C 201.167969 44.089844 200.4375 46.820312 199.097656 49.183594 C 197.742188 51.527344 195.746094 53.527344 193.179688 55.011719 L 187.992188 57.996094 L 187.316406 58.382812 C 186.160156 59.058594 185.5 60.214844 185.554688 61.550781 L 185.613281 63.441406 L 189.769531 61.039062 L 194.957031 58.050781 C 198.054688 56.273438 202.453125 52.683594 204.121094 49.789062 C 205.785156 46.894531 206.667969 43.558594 206.648438 39.984375 L 206.59375 27.101562 L 206.574219 24.058594 L 201.976562 26.71875 L 186.636719 35.566406 C 183.46875 37.402344 180.628906 40.148438 178.960938 43.136719 C 177.292969 46.121094 176.449219 49.585938 176.578125 53.25 Z M 176.90625 64.375 " fill-opacity="1" fill-rule="nonzero"/><path fill="#93960b" d="M 193.472656 67.507812 L 189.3125 69.910156 L 190.925781 70.898438 C 192.0625 71.59375 193.398438 71.628906 194.554688 70.953125 L 195.230469 70.566406 L 200.417969 67.582031 C 202.964844 66.113281 205.714844 65.363281 208.40625 65.382812 C 211.121094 65.382812 213.851562 66.132812 216.398438 67.617188 L 224.898438 72.566406 L 212.199219 79.894531 C 209.582031 81.417969 206.757812 82.148438 203.972656 82.09375 C 201.1875 82.058594 198.382812 81.234375 195.835938 79.640625 L 186.363281 73.757812 C 185.226562 73.042969 183.890625 73.023438 182.734375 73.703125 L 168.828125 81.726562 L 170.4375 82.71875 C 171.574219 83.414062 172.914062 83.449219 174.066406 82.773438 L 184.164062 76.945312 L 193.621094 82.808594 C 196.734375 84.75 200.160156 85.742188 203.589844 85.796875 C 207.015625 85.851562 210.808594 84.769531 213.976562 82.917969 L 229.316406 74.066406 L 233.914062 71.410156 L 231.277344 69.871094 L 220.136719 63.382812 C 217.054688 61.589844 213.722656 60.691406 210.367188 60.671875 C 207.03125 60.671875 201.71875 62.6875 198.621094 64.484375 Z M 193.472656 67.507812 " fill-opacity="1" fill-rule="nonzero"/><g fill="#ffffff" fill-opacity="1"><g transform="translate(114.648662, 250.404578)"><g><path d="M 4.3125 -2.890625 C 4.164062 -3.554688 4.09375 -4.832031 4.09375 -6.71875 C 4.09375 -8.601562 4.445312 -10.601562 5.15625 -12.71875 L 5.796875 -12.71875 C 5.742188 -12.207031 5.71875 -11.691406 5.71875 -11.171875 C 5.71875 -8.296875 6.585938 -5.898438 8.328125 -3.984375 C 10.078125 -2.078125 12.390625 -1.125 15.265625 -1.125 C 18.234375 -1.125 20.671875 -2.019531 22.578125 -3.8125 C 24.492188 -5.601562 25.453125 -7.851562 25.453125 -10.5625 C 25.453125 -13.269531 24.53125 -15.472656 22.6875 -17.171875 L 9.125 -29.765625 C 6.570312 -32.117188 5.296875 -34.96875 5.296875 -38.3125 C 5.296875 -41.65625 6.414062 -44.515625 8.65625 -46.890625 C 10.894531 -49.273438 13.925781 -50.46875 17.75 -50.46875 C 19.53125 -50.46875 21.554688 -50.234375 23.828125 -49.765625 L 26.578125 -49.765625 L 26.578125 -41.0625 L 25.9375 -41.0625 C 25.9375 -43.28125 25.171875 -45.046875 23.640625 -46.359375 C 22.109375 -47.679688 20.140625 -48.34375 17.734375 -48.34375 C 15.335938 -48.34375 13.328125 -47.539062 11.703125 -45.9375 C 10.078125 -44.34375 9.265625 -42.34375 9.265625 -39.9375 C 9.265625 -37.53125 10.207031 -35.457031 12.09375 -33.71875 L 26.015625 -20.859375 C 28.367188 -18.679688 29.546875 -15.707031 29.546875 -11.9375 C 29.546875 -8.175781 28.34375 -5.082031 25.9375 -2.65625 C 23.539062 -0.226562 20.335938 0.984375 16.328125 0.984375 C 14.253906 0.984375 12.050781 0.664062 9.71875 0.03125 C 7.382812 -0.601562 5.582031 -1.578125 4.3125 -2.890625 Z M 4.3125 -2.890625 "/></g></g></g><g fill="#ffffff" fill-opacity="1"><g transform="translate(151.754168, 250.404578)"><g><path d="M 4.3125 -2.890625 C 4.164062 -3.554688 4.09375 -4.832031 4.09375 -6.71875 C 4.09375 -8.601562 4.445312 -10.601562 5.15625 -12.71875 L 5.796875 -12.71875 C 5.742188 -12.207031 5.71875 -11.691406 5.71875 -11.171875 C 5.71875 -8.296875 6.585938 -5.898438 8.328125 -3.984375 C 10.078125 -2.078125 12.390625 -1.125 15.265625 -1.125 C 18.234375 -1.125 20.671875 -2.019531 22.578125 -3.8125 C 24.492188 -5.601562 25.453125 -7.851562 25.453125 -10.5625 C 25.453125 -13.269531 24.53125 -15.472656 22.6875 -17.171875 L 9.125 -29.765625 C 6.570312 -32.117188 5.296875 -34.96875 5.296875 -38.3125 C 5.296875 -41.65625 6.414062 -44.515625 8.65625 -46.890625 C 10.894531 -49.273438 13.925781 -50.46875 17.75 -50.46875 C 19.53125 -50.46875 21.554688 -50.234375 23.828125 -49.765625 L 26.578125 -49.765625 L 26.578125 -41.0625 L 25.9375 -41.0625 C 25.9375 -43.28125 25.171875 -45.046875 23.640625 -46.359375 C 22.109375 -47.679688 20.140625 -48.34375 17.734375 -48.34375 C 15.335938 -48.34375 13.328125 -47.539062 11.703125 -45.9375 C 10.078125 -44.34375 9.265625 -42.34375 9.265625 -39.9375 C 9.265625 -37.53125 10.207031 -35.457031 12.09375 -33.71875 L 26.015625 -20.859375 C 28.367188 -18.679688 29.546875 -15.707031 29.546875 -11.9375 C 29.546875 -8.175781 28.34375 -5.082031 25.9375 -2.65625 C 23.539062 -0.226562 20.335938 0.984375 16.328125 0.984375 C 14.253906 0.984375 12.050781 0.664062 9.71875 0.03125 C 7.382812 -0.601562 5.582031 -1.578125 4.3125 -2.890625 Z M 4.3125 -2.890625 "/></g></g></g><path stroke-linecap="butt" transform="matrix(0.75, 0, 0, 0.75, 32.554207, 200.367288)" fill="none" stroke-linejoin="miter" d="M 0.000640105 0.499865 L 78.188146 0.499865 " stroke="#584910" stroke-width="1" stroke-opacity="1" stroke-miterlimit="4"/><path stroke-linecap="butt" transform="matrix(0.75, 0, 0, 0.75, 208.805072, 199.306961)" fill="none" stroke-linejoin="miter" d="M -0.000512863 0.502177 L 78.186994 0.502177 " stroke="#584910" stroke-width="1" stroke-opacity="1" stroke-miterlimit="4"/><g fill="#ffffff" fill-opacity="1"><g transform="translate(69.934059, 286.18989)"><g><path d="M 5.84375 -12.046875 L 5.046875 -12.046875 C 5.023438 -12.046875 5.007812 -12.046875 5 -12.046875 L 5 -1.34375 C 5.007812 -1.019531 5.128906 -0.742188 5.359375 -0.515625 C 5.585938 -0.296875 5.859375 -0.1875 6.171875 -0.1875 L 6.40625 -0.1875 L 6.40625 0 L 0.828125 0 L 0.828125 -0.1875 L 1.0625 -0.1875 C 1.507812 -0.1875 1.847656 -0.375 2.078125 -0.75 C 2.171875 -0.925781 2.222656 -1.117188 2.234375 -1.328125 L 2.234375 -11.515625 C 2.222656 -11.835938 2.101562 -12.109375 1.875 -12.328125 C 1.65625 -12.554688 1.382812 -12.671875 1.0625 -12.671875 L 0.828125 -12.671875 L 0.828125 -12.859375 L 7.125 -12.859375 C 8.3125 -12.859375 9.316406 -12.601562 10.140625 -12.09375 C 10.554688 -11.832031 10.882812 -11.472656 11.125 -11.015625 C 11.375 -10.554688 11.5 -9.957031 11.5 -9.21875 C 11.5 -8.476562 11.238281 -7.765625 10.71875 -7.078125 C 10.207031 -6.390625 9.460938 -5.992188 8.484375 -5.890625 C 9.203125 -5.660156 9.828125 -5.125 10.359375 -4.28125 C 11.679688 -2.164062 12.660156 -0.90625 13.296875 -0.5 C 13.617188 -0.300781 14.019531 -0.195312 14.5 -0.1875 L 14.5 0 L 12.703125 0 C 11.628906 0 10.738281 -0.140625 10.03125 -0.421875 C 9.332031 -0.703125 8.78125 -1.195312 8.375 -1.90625 C 8.144531 -2.3125 7.640625 -3.359375 6.859375 -5.046875 C 6.515625 -5.796875 6.097656 -6.207031 5.609375 -6.28125 L 5.609375 -6.46875 L 6.171875 -6.46875 C 6.722656 -6.46875 7.207031 -6.628906 7.625 -6.953125 C 8.050781 -7.285156 8.335938 -7.828125 8.484375 -8.578125 C 8.535156 -8.835938 8.5625 -9.039062 8.5625 -9.1875 C 8.5625 -10.1875 8.359375 -10.910156 7.953125 -11.359375 C 7.546875 -11.804688 7.023438 -12.035156 6.390625 -12.046875 C 6.265625 -12.046875 6.082031 -12.046875 5.84375 -12.046875 Z M 5.84375 -12.046875 "/></g></g></g><g fill="#ffffff" fill-opacity="1"><g transform="translate(98.358404, 286.18989)"><g><path d="M 1.015625 -0.1875 C 1.328125 -0.1875 1.597656 -0.296875 1.828125 -0.515625 C 2.054688 -0.742188 2.175781 -1.019531 2.1875 -1.34375 L 2.1875 -11.578125 C 2.164062 -11.890625 2.070312 -12.125 1.90625 -12.28125 C 1.613281 -12.539062 1.316406 -12.671875 1.015625 -12.671875 L 0.765625 -12.671875 L 0.765625 -12.859375 L 7.8125 -12.859375 C 8.40625 -12.859375 8.898438 -12.90625 9.296875 -13 C 9.691406 -13.09375 9.929688 -13.15625 10.015625 -13.1875 L 10.015625 -9.984375 L 9.828125 -10 L 9.828125 -10.203125 C 9.828125 -10.960938 9.546875 -11.5 8.984375 -11.8125 C 8.710938 -11.96875 8.394531 -12.054688 8.03125 -12.078125 L 4.9375 -12.078125 L 4.9375 -6.71875 L 7.375 -6.71875 C 7.820312 -6.738281 8.191406 -6.894531 8.484375 -7.1875 C 8.785156 -7.488281 8.9375 -7.863281 8.9375 -8.3125 L 8.9375 -8.46875 L 9.109375 -8.46875 L 9.109375 -4.21875 L 8.9375 -4.21875 L 8.9375 -4.375 C 8.9375 -4.820312 8.789062 -5.191406 8.5 -5.484375 C 8.207031 -5.785156 7.84375 -5.941406 7.40625 -5.953125 L 4.9375 -5.953125 L 4.9375 -0.796875 L 7.34375 -0.796875 C 8.238281 -0.796875 8.988281 -1.050781 9.59375 -1.5625 C 10.207031 -2.070312 10.660156 -2.800781 10.953125 -3.75 L 11.140625 -3.75 L 10.296875 0 L 0.765625 0 L 0.765625 -0.1875 Z M 1.015625 -0.1875 "/></g></g></g><g fill="#ffffff" fill-opacity="1"><g transform="translate(124.651957, 286.18989)"><g><path d="M 15.015625 -12.671875 C 14.585938 -12.671875 14.257812 -12.488281 14.03125 -12.125 C 13.9375 -11.96875 13.882812 -11.785156 13.875 -11.578125 L 13.875 -2.09375 C 13.875 -1.269531 13.925781 -0.578125 14.03125 -0.015625 L 14.09375 0.25 L 13.921875 0.25 L 4.65625 -8.578125 L 4.65625 -1.28125 C 4.65625 -0.976562 4.765625 -0.71875 4.984375 -0.5 C 5.203125 -0.289062 5.460938 -0.1875 5.765625 -0.1875 L 6.125 -0.1875 L 6.125 0 L 0.546875 0 L 0.546875 -0.1875 L 0.875 -0.1875 C 1.195312 -0.1875 1.46875 -0.289062 1.6875 -0.5 C 1.90625 -0.71875 2.015625 -0.984375 2.015625 -1.296875 L 2.015625 -10.84375 C 2.015625 -11.644531 1.960938 -12.316406 1.859375 -12.859375 L 1.8125 -13.140625 L 1.984375 -13.140625 L 11.265625 -4.296875 L 11.265625 -11.5625 C 11.253906 -11.875 11.132812 -12.132812 10.90625 -12.34375 C 10.6875 -12.5625 10.425781 -12.671875 10.125 -12.671875 L 9.796875 -12.671875 L 9.796875 -12.859375 L 15.359375 -12.859375 L 15.359375 -12.671875 Z M 15.015625 -12.671875 "/></g></g></g><g fill="#ffffff" fill-opacity="1"><g transform="translate(155.243825, 286.18989)"><g><path d="M 7.515625 -12.109375 L 7.515625 -1.328125 C 7.523438 -1.003906 7.644531 -0.734375 7.875 -0.515625 C 8.101562 -0.296875 8.375 -0.1875 8.6875 -0.1875 L 8.90625 -0.1875 L 8.9375 0 L 3.34375 0 L 3.34375 -0.1875 L 3.578125 -0.1875 C 3.890625 -0.1875 4.15625 -0.296875 4.375 -0.515625 C 4.601562 -0.734375 4.734375 -0.992188 4.765625 -1.296875 L 4.765625 -12.109375 L 2.28125 -12.109375 C 1.71875 -12.097656 1.269531 -11.921875 0.9375 -11.578125 C 0.601562 -11.234375 0.4375 -10.785156 0.4375 -10.234375 L 0.4375 -10.015625 L 0.25 -10.015625 L 0.25 -13.21875 C 0.757812 -13.007812 1.484375 -12.894531 2.421875 -12.875 L 9.828125 -12.875 C 10.210938 -12.875 10.625 -12.910156 11.0625 -12.984375 C 11.507812 -13.054688 11.820312 -13.132812 12 -13.21875 L 12 -10.015625 L 11.8125 -10.015625 L 11.8125 -10.234375 C 11.8125 -10.992188 11.523438 -11.535156 10.953125 -11.859375 C 10.679688 -12.015625 10.359375 -12.097656 9.984375 -12.109375 Z M 7.515625 -12.109375 "/></g></g></g><g fill="#ffffff" fill-opacity="1"><g transform="translate(182.180285, 286.18989)"><g><path d="M 13.5625 -0.1875 L 13.71875 -0.1875 L 13.71875 0 L 7.859375 0 L 7.859375 -0.1875 L 8.03125 -0.1875 C 8.300781 -0.1875 8.5 -0.269531 8.625 -0.4375 C 8.75 -0.601562 8.8125 -0.757812 8.8125 -0.90625 C 8.8125 -1.050781 8.78125 -1.195312 8.71875 -1.34375 L 7.828125 -3.59375 L 3.53125 -3.59375 L 2.5625 -1.34375 C 2.507812 -1.1875 2.484375 -1.035156 2.484375 -0.890625 C 2.484375 -0.753906 2.546875 -0.601562 2.671875 -0.4375 C 2.804688 -0.269531 3.007812 -0.1875 3.28125 -0.1875 L 3.4375 -0.1875 L 3.4375 0 L -0.5 0 L -0.5 -0.1875 L -0.328125 -0.1875 C -0.046875 -0.1875 0.234375 -0.269531 0.515625 -0.4375 C 0.796875 -0.613281 1.023438 -0.875 1.203125 -1.21875 L 5.453125 -10.828125 C 6.023438 -12.035156 6.332031 -12.835938 6.375 -13.234375 L 6.53125 -13.234375 L 12 -1.25 C 12.175781 -0.894531 12.40625 -0.628906 12.6875 -0.453125 C 12.96875 -0.273438 13.257812 -0.1875 13.5625 -0.1875 Z M 3.84375 -4.375 L 7.515625 -4.375 L 5.734375 -8.890625 Z M 3.84375 -4.375 "/></g></g></g><g fill="#ffffff" fill-opacity="1"><g transform="translate(210.035185, 286.18989)"><g><path d="M 1.015625 -0.1875 C 1.328125 -0.1875 1.597656 -0.296875 1.828125 -0.515625 C 2.054688 -0.742188 2.175781 -1.019531 2.1875 -1.34375 L 2.1875 -11.515625 C 2.175781 -11.835938 2.054688 -12.109375 1.828125 -12.328125 C 1.597656 -12.554688 1.328125 -12.671875 1.015625 -12.671875 L 0.765625 -12.671875 L 0.765625 -12.859375 L 6.359375 -12.859375 L 6.34375 -12.671875 L 6.125 -12.671875 C 5.800781 -12.671875 5.519531 -12.554688 5.28125 -12.328125 C 5.050781 -12.109375 4.9375 -11.835938 4.9375 -11.515625 L 4.9375 -0.796875 L 7.34375 -0.796875 C 8.238281 -0.796875 8.988281 -1.050781 9.59375 -1.5625 C 10.207031 -2.070312 10.660156 -2.800781 10.953125 -3.75 L 11.140625 -3.75 L 10.296875 0 L 0.765625 0 L 0.765625 -0.1875 Z M 1.015625 -0.1875 "/></g></g></g><g fill="#ffffff" fill-opacity="1"><g transform="translate(236.053205, 286.18989)"><g><path d="M 0.921875 -1.703125 C 0.921875 -2.585938 1.109375 -3.34375 1.484375 -3.96875 L 1.65625 -3.96875 C 1.644531 -3.875 1.640625 -3.773438 1.640625 -3.671875 C 1.640625 -2.828125 1.941406 -2.085938 2.546875 -1.453125 C 3.148438 -0.828125 3.976562 -0.515625 5.03125 -0.515625 C 5.851562 -0.515625 6.492188 -0.707031 6.953125 -1.09375 C 7.410156 -1.488281 7.640625 -1.988281 7.640625 -2.59375 C 7.640625 -2.945312 7.523438 -3.265625 7.296875 -3.546875 C 7.078125 -3.828125 6.703125 -4.140625 6.171875 -4.484375 L 2.984375 -6.59375 C 1.785156 -7.394531 1.1875 -8.375 1.1875 -9.53125 C 1.1875 -9.65625 1.203125 -9.78125 1.234375 -9.90625 C 1.304688 -10.875 1.679688 -11.648438 2.359375 -12.234375 C 3.035156 -12.828125 3.945312 -13.125 5.09375 -13.125 C 5.757812 -13.125 6.59375 -13.0625 7.59375 -12.9375 L 8.75 -12.9375 L 8.5 -10.234375 L 8.328125 -10.234375 C 8.328125 -10.867188 8.085938 -11.378906 7.609375 -11.765625 C 7.140625 -12.148438 6.515625 -12.34375 5.734375 -12.34375 C 4.773438 -12.34375 4.082031 -12.050781 3.65625 -11.46875 C 3.4375 -11.1875 3.328125 -10.90625 3.328125 -10.625 C 3.328125 -10.34375 3.378906 -10.101562 3.484375 -9.90625 C 3.660156 -9.582031 4.035156 -9.238281 4.609375 -8.875 L 8.125 -6.59375 C 9.226562 -5.875 9.78125 -4.929688 9.78125 -3.765625 C 9.78125 -2.460938 9.332031 -1.46875 8.4375 -0.78125 C 7.550781 -0.09375 6.375 0.25 4.90625 0.25 C 4.070312 0.25 3.300781 0.148438 2.59375 -0.046875 C 1.894531 -0.242188 1.378906 -0.515625 1.046875 -0.859375 C 0.960938 -1.097656 0.921875 -1.378906 0.921875 -1.703125 Z M 0.921875 -1.703125 "/></g></g></g></svg>