<svg xmlns="http://www.w3.org/2000/svg" xmlns:xlink="http://www.w3.org/1999/xlink" width="400" zoomAndPan="magnify" viewBox="0 0 300 299.999988" height="400" preserveAspectRatio="xMidYMid meet" version="1.0"><defs><g/><clipPath id="2e74dc902a"><path d="M 155 6.230469 L 180 6.230469 L 180 69 L 155 69 Z M 155 6.230469 " clip-rule="nonzero"/></clipPath><clipPath id="2345162722"><path d="M 124 6.230469 L 149 6.230469 L 149 69 L 124 69 Z M 124 6.230469 " clip-rule="nonzero"/></clipPath><clipPath id="b50b4adffe"><path d="M 67.25 60 L 133 60 L 133 86 L 67.25 86 Z M 67.25 60 " clip-rule="nonzero"/></clipPath><clipPath id="67383a99f2"><path d="M 67.25 90 L 133 90 L 133 116 L 67.25 116 Z M 67.25 90 " clip-rule="nonzero"/></clipPath><clipPath id="508987094a"><path d="M 155 107 L 180 107 L 180 169.730469 L 155 169.730469 Z M 155 107 " clip-rule="nonzero"/></clipPath><clipPath id="0c08c830d8"><path d="M 124 107 L 149 107 L 149 169.730469 L 124 169.730469 Z M 124 107 " clip-rule="nonzero"/></clipPath><clipPath id="4ea952992a"><path d="M 170 90 L 236 90 L 236 116 L 170 116 Z M 170 90 " clip-rule="nonzero"/></clipPath><clipPath id="75b2c335ed"><path d="M 170 60 L 236 60 L 236 86 L 170 86 Z M 170 60 " clip-rule="nonzero"/></clipPath></defs><g clip-path="url(#2e74dc902a)"><path fill="#93960b" d="M 159.078125 64.121094 L 159.078125 52.386719 L 168.949219 47.09375 C 172.214844 45.339844 174.796875 42.867188 176.566406 39.917969 C 178.339844 36.964844 179.296875 33.109375 179.296875 29.402344 L 179.296875 6.234375 L 176.640625 7.765625 L 165.386719 14.203125 C 162.269531 15.972656 159.796875 18.445312 158.121094 21.339844 C 156.441406 24.253906 155.539062 29.902344 155.539062 33.496094 L 155.539062 44.34375 L 157.214844 43.441406 C 158.398438 42.8125 159.097656 41.652344 159.097656 40.304688 L 159.097656 33.496094 C 159.097656 30.527344 159.835938 27.777344 161.199219 25.417969 C 162.566406 23.058594 164.59375 21.046875 167.175781 19.570312 L 175.773438 14.644531 L 175.773438 29.402344 C 175.773438 32.445312 175 35.285156 173.558594 37.683594 C 172.121094 40.101562 170 42.113281 167.324219 43.550781 L 157.4375 48.847656 C 156.257812 49.472656 155.554688 50.636719 155.554688 51.980469 L 155.554688 68.140625 L 157.234375 67.238281 C 158.398438 66.628906 159.078125 65.464844 159.078125 64.121094 Z M 159.078125 64.121094 " fill-opacity="1" fill-rule="nonzero"/></g><g clip-path="url(#2345162722)"><path fill="#93960b" d="M 134.582031 47.113281 L 144.449219 52.40625 L 144.449219 64.136719 C 144.449219 65.484375 145.132812 66.648438 146.332031 67.273438 L 148.011719 68.179688 L 148.011719 52.019531 C 148.011719 50.671875 147.308594 49.511719 146.128906 48.882812 L 136.242188 43.589844 C 133.566406 42.148438 131.445312 40.140625 130.007812 37.722656 C 128.566406 35.324219 127.792969 32.484375 127.792969 29.4375 L 127.792969 14.679688 L 136.390625 19.605469 C 138.953125 21.082031 140.984375 23.09375 142.367188 25.453125 C 143.730469 27.816406 144.46875 30.566406 144.46875 33.535156 L 144.46875 40.339844 C 144.46875 41.6875 145.171875 42.851562 146.351562 43.476562 L 148.03125 44.382812 L 148.03125 33.535156 C 148.03125 29.9375 147.125 24.292969 145.445312 21.378906 C 143.75 18.464844 141.296875 16.011719 138.179688 14.238281 L 126.925781 7.800781 L 124.269531 6.269531 L 124.269531 29.4375 C 124.269531 33.128906 125.230469 36.984375 127 39.953125 C 128.734375 42.886719 131.316406 45.359375 134.582031 47.113281 Z M 134.582031 47.113281 " fill-opacity="1" fill-rule="nonzero"/></g><path fill="#93960b" d="M 106.542969 57.460938 L 111.761719 60.46875 L 115.949219 62.882812 L 116.003906 60.984375 C 116.042969 59.636719 115.394531 58.457031 114.234375 57.773438 L 113.550781 57.386719 L 108.332031 54.378906 C 105.765625 52.902344 103.738281 50.875 102.371094 48.515625 C 101.007812 46.152344 100.289062 43.386719 100.304688 40.414062 L 100.34375 30.507812 L 113.128906 37.886719 C 115.765625 39.417969 117.832031 41.503906 119.195312 43.957031 C 120.5625 46.410156 121.261719 49.25 121.152344 52.296875 L 120.800781 63.511719 C 120.765625 64.859375 121.410156 66.039062 122.574219 66.703125 L 136.574219 74.78125 L 136.628906 72.863281 C 136.664062 71.515625 136.019531 70.335938 134.859375 69.671875 L 124.695312 63.804688 L 125.042969 52.609375 C 125.171875 48.917969 124.324219 45.433594 122.644531 42.425781 C 120.96875 39.417969 118.109375 36.652344 114.917969 34.808594 L 99.457031 25.898438 L 94.828125 23.222656 L 94.808594 26.285156 L 94.753906 39.253906 C 94.734375 42.851562 95.640625 46.207031 97.300781 49.121094 C 98.996094 52.054688 103.425781 55.652344 106.542969 57.460938 Z M 106.542969 57.460938 " fill-opacity="1" fill-rule="nonzero"/><g clip-path="url(#b50b4adffe)"><path fill="#93960b" d="M 87.355469 82.511719 C 90.546875 84.355469 94.367188 85.445312 97.816406 85.40625 C 101.265625 85.351562 104.695312 84.355469 107.851562 82.402344 L 117.371094 76.496094 L 127.535156 82.363281 C 128.695312 83.027344 130.042969 83.011719 131.1875 82.308594 L 132.808594 81.292969 L 118.808594 73.214844 C 117.648438 72.550781 116.300781 72.570312 115.15625 73.269531 L 105.621094 79.191406 C 103.035156 80.796875 100.234375 81.625 97.429688 81.664062 C 94.625 81.699219 91.785156 80.960938 89.144531 79.449219 L 76.363281 72.070312 L 84.921875 67.089844 C 87.484375 65.597656 90.234375 64.839844 92.964844 64.839844 C 95.695312 64.839844 98.445312 65.578125 101.007812 67.054688 L 106.226562 70.058594 L 106.910156 70.449219 C 108.074219 71.128906 109.417969 71.09375 110.5625 70.390625 L 112.1875 69.394531 L 108 66.980469 L 102.777344 63.972656 C 99.660156 62.183594 94.328125 60.136719 90.953125 60.136719 C 87.597656 60.152344 84.238281 61.058594 81.121094 62.867188 L 69.90625 69.394531 L 67.25 70.945312 L 71.878906 73.621094 Z M 87.355469 82.511719 " fill-opacity="1" fill-rule="nonzero"/></g><path fill="#93960b" d="M 124.675781 111.992188 L 134.839844 106.125 C 136 105.460938 136.664062 104.28125 136.609375 102.933594 L 136.554688 101.015625 L 122.574219 109.09375 C 121.410156 109.777344 120.746094 110.957031 120.78125 112.285156 L 121.132812 123.5 C 121.226562 126.527344 120.542969 129.386719 119.179688 131.839844 C 117.8125 134.292969 115.746094 136.378906 113.109375 137.910156 L 100.324219 145.289062 L 100.289062 135.382812 C 100.269531 132.410156 101.007812 129.664062 102.355469 127.28125 C 103.71875 124.921875 105.730469 122.910156 108.3125 121.417969 L 113.53125 118.410156 L 114.214844 118.023438 C 115.378906 117.339844 116.042969 116.179688 115.988281 114.8125 L 115.929688 112.914062 L 111.742188 115.328125 L 106.523438 118.335938 C 103.40625 120.125 98.976562 123.742188 97.300781 126.65625 C 95.621094 129.570312 94.734375 132.929688 94.753906 136.523438 L 94.808594 149.492188 L 94.828125 152.554688 L 99.457031 149.878906 L 114.898438 140.972656 C 118.089844 139.125 120.949219 136.359375 122.628906 133.351562 C 124.304688 130.34375 125.15625 126.859375 125.027344 123.167969 Z M 124.675781 111.992188 " fill-opacity="1" fill-rule="nonzero"/><g clip-path="url(#67383a99f2)"><path fill="#93960b" d="M 108 108.835938 L 112.1875 106.417969 L 110.5625 105.421875 C 109.417969 104.722656 108.074219 104.683594 106.910156 105.367188 L 106.226562 105.753906 L 101.007812 108.761719 C 98.445312 110.238281 95.675781 110.996094 92.964844 110.976562 C 90.234375 110.976562 87.484375 110.21875 84.921875 108.726562 L 76.363281 103.746094 L 89.144531 96.367188 C 91.785156 94.835938 94.625 94.097656 97.429688 94.152344 C 100.234375 94.1875 103.054688 95.019531 105.621094 96.625 L 115.15625 102.546875 C 116.300781 103.265625 117.648438 103.265625 118.808594 102.601562 L 132.808594 94.519531 L 131.1875 93.507812 C 130.042969 92.804688 128.695312 92.785156 127.535156 93.449219 L 117.371094 99.316406 L 107.851562 93.414062 C 104.714844 91.457031 101.265625 90.460938 97.816406 90.40625 C 94.367188 90.351562 90.546875 91.441406 87.355469 93.304688 L 71.917969 102.214844 L 67.285156 104.886719 L 69.941406 106.4375 L 81.160156 112.96875 C 84.257812 114.777344 87.613281 115.679688 90.992188 115.699219 C 94.347656 115.699219 99.699219 113.667969 102.816406 111.859375 Z M 108 108.835938 " fill-opacity="1" fill-rule="nonzero"/></g><g clip-path="url(#508987094a)"><path fill="#93960b" d="M 168.96875 128.683594 L 159.097656 123.390625 L 159.097656 111.675781 C 159.097656 110.332031 158.398438 109.167969 157.214844 108.539062 L 155.539062 107.636719 L 155.539062 123.796875 C 155.539062 125.144531 156.238281 126.304688 157.417969 126.933594 L 167.304688 132.226562 C 169.980469 133.664062 172.101562 135.675781 173.542969 138.09375 C 174.980469 140.492188 175.753906 143.332031 175.753906 146.375 L 175.753906 161.132812 L 167.160156 156.207031 C 164.59375 154.730469 162.566406 152.738281 161.183594 150.378906 C 159.816406 148.019531 159.078125 145.269531 159.078125 142.300781 L 159.078125 135.492188 C 159.078125 134.144531 158.378906 132.984375 157.199219 132.355469 L 155.519531 131.453125 L 155.519531 142.300781 C 155.519531 145.894531 156.421875 151.542969 158.101562 154.457031 C 159.78125 157.371094 162.253906 159.824219 165.371094 161.59375 L 176.621094 168.03125 L 179.277344 169.5625 L 179.277344 146.394531 C 179.277344 142.703125 178.320312 138.847656 176.546875 135.878906 C 174.816406 132.910156 172.214844 130.4375 168.96875 128.683594 Z M 168.96875 128.683594 " fill-opacity="1" fill-rule="nonzero"/></g><g clip-path="url(#0c08c830d8)"><path fill="#93960b" d="M 144.449219 111.675781 L 144.449219 123.410156 L 134.582031 128.703125 C 131.316406 130.4375 128.734375 132.929688 126.960938 135.878906 C 125.191406 138.847656 124.234375 142.703125 124.234375 146.394531 L 124.234375 169.5625 L 126.890625 168.03125 L 138.160156 161.59375 C 141.277344 159.824219 143.75 157.351562 145.429688 154.457031 C 147.105469 151.542969 148.011719 145.894531 148.011719 142.300781 L 148.011719 131.453125 L 146.332031 132.355469 C 145.152344 132.984375 144.449219 134.144531 144.449219 135.492188 L 144.449219 142.300781 C 144.449219 145.269531 143.710938 148.019531 142.347656 150.378906 C 140.984375 152.738281 138.953125 154.75 136.371094 156.207031 L 127.773438 161.132812 L 127.773438 146.375 C 127.773438 143.332031 128.550781 140.492188 129.988281 138.09375 C 131.425781 135.675781 133.546875 133.664062 136.222656 132.226562 L 146.109375 126.933594 C 147.292969 126.304688 147.992188 125.144531 147.992188 123.796875 L 147.992188 107.636719 L 146.3125 108.539062 C 145.152344 109.167969 144.449219 110.332031 144.449219 111.675781 Z M 144.449219 111.675781 " fill-opacity="1" fill-rule="nonzero"/></g><g clip-path="url(#4ea952992a)"><path fill="#93960b" d="M 231.613281 102.195312 L 216.171875 93.285156 C 212.980469 91.441406 209.164062 90.332031 205.714844 90.390625 C 202.265625 90.445312 198.832031 91.441406 195.679688 93.394531 L 186.160156 99.296875 L 175.996094 93.433594 C 174.832031 92.769531 173.488281 92.769531 172.34375 93.488281 L 170.71875 94.503906 L 184.722656 102.582031 C 185.882812 103.246094 187.230469 103.226562 188.375 102.527344 L 197.910156 96.605469 C 200.492188 95 203.296875 94.171875 206.101562 94.132812 C 208.90625 94.097656 211.746094 94.835938 214.382812 96.347656 L 227.167969 103.726562 L 218.609375 108.707031 C 216.042969 110.199219 213.296875 110.957031 210.566406 110.957031 C 207.835938 110.957031 205.085938 110.21875 202.523438 108.742188 L 197.300781 105.738281 L 196.621094 105.347656 C 195.457031 104.667969 194.109375 104.703125 192.964844 105.40625 L 191.34375 106.402344 L 195.53125 108.816406 L 200.75 111.824219 C 203.867188 113.613281 209.199219 115.660156 212.574219 115.660156 C 215.933594 115.644531 219.289062 114.738281 222.410156 112.929688 L 233.625 106.402344 L 236.28125 104.851562 Z M 231.613281 102.195312 " fill-opacity="1" fill-rule="nonzero"/></g><path fill="#93960b" d="M 196.988281 118.335938 L 191.765625 115.328125 L 187.578125 112.914062 L 187.542969 114.8125 C 187.507812 116.160156 188.152344 117.339844 189.3125 118.023438 L 189.996094 118.410156 L 195.21875 121.417969 C 197.78125 122.894531 199.808594 124.921875 201.15625 127.28125 C 202.523438 129.644531 203.242188 132.410156 203.222656 135.363281 L 203.1875 145.269531 L 190.402344 137.890625 C 187.765625 136.359375 185.699219 134.273438 184.332031 131.820312 C 182.96875 129.367188 182.265625 126.527344 182.378906 123.484375 L 182.726562 112.265625 C 182.765625 110.921875 182.121094 109.738281 180.9375 109.074219 L 166.9375 100.996094 L 166.882812 102.914062 C 166.84375 104.261719 167.492188 105.441406 168.652344 106.105469 L 178.816406 111.972656 L 178.449219 123.167969 C 178.320312 126.859375 179.167969 130.34375 180.847656 133.351562 C 182.527344 136.359375 185.386719 139.125 188.578125 140.972656 L 204.015625 149.878906 L 208.648438 152.554688 L 208.664062 149.492188 L 208.71875 136.523438 C 208.738281 132.929688 207.835938 129.570312 206.175781 126.65625 C 204.550781 123.742188 200.105469 120.144531 196.988281 118.335938 Z M 196.988281 118.335938 " fill-opacity="1" fill-rule="nonzero"/><path fill="#93960b" d="M 178.855469 63.804688 L 168.691406 69.671875 C 167.527344 70.335938 166.863281 71.515625 166.917969 72.863281 L 166.972656 74.78125 L 180.976562 66.703125 C 182.136719 66.019531 182.800781 64.839844 182.765625 63.511719 L 182.414062 52.296875 C 182.324219 49.25 183.003906 46.410156 184.371094 43.957031 C 185.734375 41.503906 187.78125 39.417969 190.4375 37.886719 L 203.222656 30.507812 L 203.261719 40.414062 C 203.277344 43.386719 202.539062 46.132812 201.195312 48.515625 C 199.828125 50.875 197.816406 52.886719 195.234375 54.378906 L 190.015625 57.386719 L 189.332031 57.773438 C 188.171875 58.457031 187.507812 59.617188 187.5625 60.964844 L 187.617188 62.867188 L 191.804688 60.449219 L 197.023438 57.441406 C 200.140625 55.652344 204.570312 52.039062 206.25 49.121094 C 207.925781 46.207031 208.8125 42.851562 208.792969 39.253906 L 208.738281 26.285156 L 208.71875 23.222656 L 204.089844 25.898438 L 188.648438 34.808594 C 185.457031 36.652344 182.597656 39.417969 180.921875 42.425781 C 179.242188 45.433594 178.394531 48.917969 178.523438 52.609375 Z M 178.855469 63.804688 " fill-opacity="1" fill-rule="nonzero"/><g clip-path="url(#75b2c335ed)"><path fill="#93960b" d="M 195.53125 66.960938 L 191.34375 69.378906 L 192.964844 70.375 C 194.109375 71.074219 195.457031 71.113281 196.621094 70.429688 L 197.300781 70.042969 L 202.523438 67.035156 C 205.085938 65.558594 207.851562 64.800781 210.566406 64.820312 C 213.296875 64.820312 216.042969 65.578125 218.609375 67.070312 L 227.167969 72.050781 L 214.382812 79.429688 C 211.746094 80.960938 208.90625 81.699219 206.101562 81.644531 C 203.296875 81.609375 200.472656 80.777344 197.910156 79.171875 L 188.375 73.25 C 187.230469 72.53125 185.882812 72.511719 184.722656 73.195312 L 170.71875 81.277344 L 172.34375 82.273438 C 173.488281 82.972656 174.832031 83.011719 175.996094 82.328125 L 186.160156 76.460938 L 195.679688 82.363281 C 198.8125 84.320312 202.265625 85.316406 205.714844 85.371094 C 209.164062 85.425781 212.980469 84.339844 216.171875 82.476562 L 231.613281 73.566406 L 236.242188 70.890625 L 233.585938 69.339844 L 222.371094 62.808594 C 219.273438 61.003906 215.914062 60.097656 212.539062 60.082031 C 209.183594 60.082031 203.832031 62.109375 200.714844 63.917969 Z M 195.53125 66.960938 " fill-opacity="1" fill-rule="nonzero"/></g><g fill="#ffffff" fill-opacity="1"><g transform="translate(116.183527, 251.074408)"><g><path d="M 4.34375 -2.921875 C 4.195312 -3.578125 4.125 -4.851562 4.125 -6.75 C 4.125 -8.65625 4.476562 -10.675781 5.1875 -12.8125 L 5.828125 -12.8125 C 5.785156 -12.289062 5.765625 -11.769531 5.765625 -11.25 C 5.765625 -8.351562 6.640625 -5.941406 8.390625 -4.015625 C 10.148438 -2.097656 12.476562 -1.140625 15.375 -1.140625 C 18.363281 -1.140625 20.816406 -2.039062 22.734375 -3.84375 C 24.648438 -5.644531 25.609375 -7.910156 25.609375 -10.640625 C 25.609375 -13.367188 24.6875 -15.585938 22.84375 -17.296875 L 9.171875 -29.953125 C 6.617188 -32.328125 5.34375 -35.195312 5.34375 -38.5625 C 5.34375 -41.9375 6.46875 -44.820312 8.71875 -47.21875 C 10.96875 -49.613281 14.015625 -50.8125 17.859375 -50.8125 C 19.660156 -50.8125 21.703125 -50.570312 23.984375 -50.09375 L 26.75 -50.09375 L 26.75 -41.34375 L 26.109375 -41.34375 C 26.109375 -43.570312 25.335938 -45.347656 23.796875 -46.671875 C 22.253906 -48.003906 20.273438 -48.671875 17.859375 -48.671875 C 15.441406 -48.671875 13.414062 -47.863281 11.78125 -46.25 C 10.144531 -44.632812 9.328125 -42.617188 9.328125 -40.203125 C 9.328125 -37.785156 10.273438 -35.695312 12.171875 -33.9375 L 26.1875 -20.984375 C 28.5625 -18.804688 29.75 -15.816406 29.75 -12.015625 C 29.75 -8.222656 28.535156 -5.101562 26.109375 -2.65625 C 23.691406 -0.21875 20.46875 1 16.4375 1 C 14.351562 1 12.132812 0.675781 9.78125 0.03125 C 7.4375 -0.601562 5.625 -1.585938 4.34375 -2.921875 Z M 4.34375 -2.921875 "/></g></g></g><g fill="#ffffff" fill-opacity="1"><g transform="translate(153.536574, 251.074408)"><g><path d="M 4.34375 -2.921875 C 4.195312 -3.578125 4.125 -4.851562 4.125 -6.75 C 4.125 -8.65625 4.476562 -10.675781 5.1875 -12.8125 L 5.828125 -12.8125 C 5.785156 -12.289062 5.765625 -11.769531 5.765625 -11.25 C 5.765625 -8.351562 6.640625 -5.941406 8.390625 -4.015625 C 10.148438 -2.097656 12.476562 -1.140625 15.375 -1.140625 C 18.363281 -1.140625 20.816406 -2.039062 22.734375 -3.84375 C 24.648438 -5.644531 25.609375 -7.910156 25.609375 -10.640625 C 25.609375 -13.367188 24.6875 -15.585938 22.84375 -17.296875 L 9.171875 -29.953125 C 6.617188 -32.328125 5.34375 -35.195312 5.34375 -38.5625 C 5.34375 -41.9375 6.46875 -44.820312 8.71875 -47.21875 C 10.96875 -49.613281 14.015625 -50.8125 17.859375 -50.8125 C 19.660156 -50.8125 21.703125 -50.570312 23.984375 -50.09375 L 26.75 -50.09375 L 26.75 -41.34375 L 26.109375 -41.34375 C 26.109375 -43.570312 25.335938 -45.347656 23.796875 -46.671875 C 22.253906 -48.003906 20.273438 -48.671875 17.859375 -48.671875 C 15.441406 -48.671875 13.414062 -47.863281 11.78125 -46.25 C 10.144531 -44.632812 9.328125 -42.617188 9.328125 -40.203125 C 9.328125 -37.785156 10.273438 -35.695312 12.171875 -33.9375 L 26.1875 -20.984375 C 28.5625 -18.804688 29.75 -15.816406 29.75 -12.015625 C 29.75 -8.222656 28.535156 -5.101562 26.109375 -2.65625 C 23.691406 -0.21875 20.46875 1 16.4375 1 C 14.351562 1 12.132812 0.675781 9.78125 0.03125 C 7.4375 -0.601562 5.625 -1.585938 4.34375 -2.921875 Z M 4.34375 -2.921875 "/></g></g></g><path stroke-linecap="butt" transform="matrix(0.75, 0, 0, 0.75, 33.541402, 200.330784)" fill="none" stroke-linejoin="miter" d="M 0.00208871 1.001662 L 78.710428 1.001662 " stroke="#ffffff" stroke-width="2" stroke-opacity="1" stroke-miterlimit="4"/><path stroke-linecap="butt" transform="matrix(0.75, 0, 0, 0.75, 210.968074, 199.263382)" fill="none" stroke-linejoin="miter" d="M 0.000900839 0.997782 L 78.709241 0.997782 " stroke="#ffffff" stroke-width="2" stroke-opacity="1" stroke-miterlimit="4"/><g fill="#ffffff" fill-opacity="1"><g transform="translate(71.170627, 287.098471)"><g><path d="M 5.890625 -12.140625 L 5.09375 -12.140625 C 5.0625 -12.140625 5.039062 -12.140625 5.03125 -12.140625 L 5.03125 -1.34375 C 5.039062 -1.03125 5.160156 -0.757812 5.390625 -0.53125 C 5.617188 -0.300781 5.894531 -0.1875 6.21875 -0.1875 L 6.453125 -0.1875 L 6.453125 0 L 0.828125 0 L 0.828125 -0.1875 L 1.078125 -0.1875 C 1.515625 -0.1875 1.851562 -0.378906 2.09375 -0.765625 C 2.1875 -0.929688 2.238281 -1.117188 2.25 -1.328125 L 2.25 -11.59375 C 2.238281 -11.914062 2.117188 -12.191406 1.890625 -12.421875 C 1.660156 -12.648438 1.390625 -12.765625 1.078125 -12.765625 L 0.828125 -12.765625 L 0.828125 -12.953125 L 7.171875 -12.953125 C 8.367188 -12.953125 9.382812 -12.691406 10.21875 -12.171875 C 10.632812 -11.910156 10.960938 -11.546875 11.203125 -11.078125 C 11.453125 -10.617188 11.578125 -10.015625 11.578125 -9.265625 C 11.578125 -8.523438 11.316406 -7.8125 10.796875 -7.125 C 10.285156 -6.4375 9.535156 -6.039062 8.546875 -5.9375 C 9.265625 -5.707031 9.894531 -5.164062 10.4375 -4.3125 C 11.769531 -2.175781 12.753906 -0.90625 13.390625 -0.5 C 13.710938 -0.300781 14.113281 -0.195312 14.59375 -0.1875 L 14.59375 0 L 12.78125 0 C 11.707031 0 10.816406 -0.140625 10.109375 -0.421875 C 9.398438 -0.703125 8.84375 -1.203125 8.4375 -1.921875 C 8.195312 -2.328125 7.6875 -3.382812 6.90625 -5.09375 C 6.550781 -5.84375 6.128906 -6.253906 5.640625 -6.328125 L 5.640625 -6.515625 L 6.21875 -6.515625 C 6.769531 -6.515625 7.257812 -6.679688 7.6875 -7.015625 C 8.113281 -7.347656 8.398438 -7.890625 8.546875 -8.640625 C 8.597656 -8.898438 8.625 -9.101562 8.625 -9.25 C 8.625 -10.257812 8.421875 -10.988281 8.015625 -11.4375 C 7.609375 -11.894531 7.082031 -12.128906 6.4375 -12.140625 C 6.3125 -12.140625 6.128906 -12.140625 5.890625 -12.140625 Z M 5.890625 -12.140625 "/></g></g></g><g fill="#ffffff" fill-opacity="1"><g transform="translate(99.784598, 287.098471)"><g><path d="M 1.015625 -0.1875 C 1.335938 -0.1875 1.613281 -0.300781 1.84375 -0.53125 C 2.070312 -0.757812 2.191406 -1.03125 2.203125 -1.34375 L 2.203125 -11.65625 C 2.179688 -11.976562 2.085938 -12.210938 1.921875 -12.359375 C 1.628906 -12.628906 1.328125 -12.765625 1.015625 -12.765625 L 0.78125 -12.765625 L 0.78125 -12.953125 L 7.859375 -12.953125 C 8.460938 -12.953125 8.960938 -13 9.359375 -13.09375 C 9.753906 -13.1875 9.992188 -13.25 10.078125 -13.28125 L 10.078125 -10.046875 L 9.890625 -10.0625 L 9.890625 -10.265625 C 9.890625 -11.035156 9.609375 -11.578125 9.046875 -11.890625 C 8.773438 -12.054688 8.453125 -12.144531 8.078125 -12.15625 L 4.96875 -12.15625 L 4.96875 -6.765625 L 7.421875 -6.765625 C 7.878906 -6.785156 8.253906 -6.945312 8.546875 -7.25 C 8.835938 -7.550781 8.984375 -7.921875 8.984375 -8.359375 L 8.984375 -8.53125 L 9.171875 -8.53125 L 9.171875 -4.25 L 8.984375 -4.25 L 8.984375 -4.40625 C 8.984375 -4.863281 8.835938 -5.238281 8.546875 -5.53125 C 8.265625 -5.820312 7.898438 -5.976562 7.453125 -6 L 4.96875 -6 L 4.96875 -0.796875 L 7.40625 -0.796875 C 8.300781 -0.796875 9.050781 -1.050781 9.65625 -1.5625 C 10.269531 -2.082031 10.726562 -2.820312 11.03125 -3.78125 L 11.21875 -3.78125 L 10.359375 0 L 0.78125 0 L 0.78125 -0.1875 Z M 1.015625 -0.1875 "/></g></g></g><g fill="#ffffff" fill-opacity="1"><g transform="translate(126.253561, 287.098471)"><g><path d="M 15.109375 -12.765625 C 14.679688 -12.765625 14.359375 -12.578125 14.140625 -12.203125 C 14.035156 -12.046875 13.976562 -11.863281 13.96875 -11.65625 L 13.96875 -2.109375 C 13.96875 -1.285156 14.023438 -0.585938 14.140625 -0.015625 L 14.1875 0.265625 L 14.015625 0.265625 L 4.6875 -8.640625 L 4.6875 -1.296875 C 4.6875 -0.984375 4.796875 -0.71875 5.015625 -0.5 C 5.234375 -0.289062 5.5 -0.1875 5.8125 -0.1875 L 6.15625 -0.1875 L 6.15625 0 L 0.5625 0 L 0.5625 -0.1875 L 0.890625 -0.1875 C 1.210938 -0.1875 1.484375 -0.289062 1.703125 -0.5 C 1.921875 -0.71875 2.03125 -0.988281 2.03125 -1.3125 L 2.03125 -10.921875 C 2.03125 -11.734375 1.976562 -12.410156 1.875 -12.953125 L 1.828125 -13.234375 L 2 -13.234375 L 11.34375 -4.328125 L 11.34375 -11.640625 C 11.332031 -11.960938 11.210938 -12.226562 10.984375 -12.4375 C 10.765625 -12.65625 10.5 -12.765625 10.1875 -12.765625 L 9.859375 -12.765625 L 9.859375 -12.953125 L 15.46875 -12.953125 L 15.46875 -12.765625 Z M 15.109375 -12.765625 "/></g></g></g><g fill="#ffffff" fill-opacity="1"><g transform="translate(157.049515, 287.098471)"><g><path d="M 7.5625 -12.1875 L 7.5625 -1.328125 C 7.570312 -1.003906 7.691406 -0.734375 7.921875 -0.515625 C 8.148438 -0.296875 8.425781 -0.1875 8.75 -0.1875 L 8.96875 -0.1875 L 8.984375 0 L 3.359375 0 L 3.359375 -0.1875 L 3.609375 -0.1875 C 3.910156 -0.1875 4.175781 -0.296875 4.40625 -0.515625 C 4.632812 -0.734375 4.765625 -1 4.796875 -1.3125 L 4.796875 -12.1875 L 2.296875 -12.1875 C 1.722656 -12.175781 1.269531 -12 0.9375 -11.65625 C 0.601562 -11.3125 0.4375 -10.859375 0.4375 -10.296875 L 0.4375 -10.078125 L 0.265625 -10.078125 L 0.265625 -13.296875 C 0.765625 -13.085938 1.488281 -12.976562 2.4375 -12.96875 L 9.890625 -12.96875 C 10.273438 -12.96875 10.691406 -13.003906 11.140625 -13.078125 C 11.597656 -13.148438 11.910156 -13.222656 12.078125 -13.296875 L 12.078125 -10.078125 L 11.890625 -10.078125 L 11.890625 -10.296875 C 11.890625 -11.066406 11.601562 -11.613281 11.03125 -11.9375 C 10.757812 -12.09375 10.429688 -12.175781 10.046875 -12.1875 Z M 7.5625 -12.1875 "/></g></g></g><g fill="#ffffff" fill-opacity="1"><g transform="translate(184.165674, 287.098471)"><g><path d="M 13.65625 -0.1875 L 13.8125 -0.1875 L 13.8125 0 L 7.921875 0 L 7.921875 -0.1875 L 8.078125 -0.1875 C 8.347656 -0.1875 8.546875 -0.269531 8.671875 -0.4375 C 8.804688 -0.601562 8.875 -0.757812 8.875 -0.90625 C 8.875 -1.050781 8.84375 -1.195312 8.78125 -1.34375 L 7.875 -3.625 L 3.546875 -3.625 L 2.59375 -1.34375 C 2.53125 -1.1875 2.5 -1.035156 2.5 -0.890625 C 2.5 -0.753906 2.566406 -0.601562 2.703125 -0.4375 C 2.835938 -0.269531 3.039062 -0.1875 3.3125 -0.1875 L 3.453125 -0.1875 L 3.453125 0 L -0.5 0 L -0.5 -0.1875 L -0.328125 -0.1875 C -0.046875 -0.1875 0.234375 -0.269531 0.515625 -0.4375 C 0.796875 -0.613281 1.03125 -0.875 1.21875 -1.21875 L 5.484375 -10.890625 C 6.066406 -12.117188 6.378906 -12.925781 6.421875 -13.3125 L 6.578125 -13.3125 L 12.078125 -1.265625 C 12.265625 -0.898438 12.5 -0.628906 12.78125 -0.453125 C 13.0625 -0.273438 13.351562 -0.1875 13.65625 -0.1875 Z M 3.859375 -4.40625 L 7.5625 -4.40625 L 5.765625 -8.953125 Z M 3.859375 -4.40625 "/></g></g></g><g fill="#ffffff" fill-opacity="1"><g transform="translate(212.206401, 287.098471)"><g><path d="M 1.015625 -0.1875 C 1.335938 -0.1875 1.613281 -0.300781 1.84375 -0.53125 C 2.070312 -0.757812 2.191406 -1.03125 2.203125 -1.34375 L 2.203125 -11.59375 C 2.191406 -11.914062 2.070312 -12.191406 1.84375 -12.421875 C 1.613281 -12.648438 1.335938 -12.765625 1.015625 -12.765625 L 0.78125 -12.765625 L 0.78125 -12.953125 L 6.40625 -12.953125 L 6.375 -12.765625 L 6.15625 -12.765625 C 5.832031 -12.765625 5.550781 -12.648438 5.3125 -12.421875 C 5.082031 -12.191406 4.96875 -11.914062 4.96875 -11.59375 L 4.96875 -0.796875 L 7.40625 -0.796875 C 8.300781 -0.796875 9.050781 -1.050781 9.65625 -1.5625 C 10.269531 -2.082031 10.726562 -2.820312 11.03125 -3.78125 L 11.21875 -3.78125 L 10.359375 0 L 0.78125 0 L 0.78125 -0.1875 Z M 1.015625 -0.1875 "/></g></g></g><g fill="#ffffff" fill-opacity="1"><g transform="translate(238.397994, 287.098471)"><g><path d="M 0.921875 -1.71875 C 0.921875 -2.601562 1.113281 -3.363281 1.5 -4 L 1.671875 -4 C 1.648438 -3.894531 1.640625 -3.796875 1.640625 -3.703125 C 1.640625 -2.847656 1.945312 -2.101562 2.5625 -1.46875 C 3.175781 -0.832031 4.007812 -0.515625 5.0625 -0.515625 C 5.894531 -0.515625 6.539062 -0.710938 7 -1.109375 C 7.46875 -1.503906 7.703125 -2.003906 7.703125 -2.609375 C 7.703125 -2.960938 7.585938 -3.28125 7.359375 -3.5625 C 7.128906 -3.851562 6.75 -4.171875 6.21875 -4.515625 L 3 -6.640625 C 1.800781 -7.441406 1.203125 -8.425781 1.203125 -9.59375 C 1.203125 -9.71875 1.210938 -9.84375 1.234375 -9.96875 C 1.304688 -10.945312 1.6875 -11.726562 2.375 -12.3125 C 3.0625 -12.90625 3.976562 -13.203125 5.125 -13.203125 C 5.800781 -13.203125 6.640625 -13.144531 7.640625 -13.03125 L 8.8125 -13.03125 L 8.5625 -10.296875 L 8.375 -10.296875 C 8.375 -10.941406 8.132812 -11.457031 7.65625 -11.84375 C 7.1875 -12.238281 6.554688 -12.4375 5.765625 -12.4375 C 4.804688 -12.4375 4.113281 -12.140625 3.6875 -11.546875 C 3.457031 -11.265625 3.34375 -10.976562 3.34375 -10.6875 C 3.34375 -10.40625 3.398438 -10.164062 3.515625 -9.96875 C 3.691406 -9.644531 4.066406 -9.300781 4.640625 -8.9375 L 8.171875 -6.640625 C 9.285156 -5.910156 9.84375 -4.960938 9.84375 -3.796875 C 9.84375 -2.484375 9.394531 -1.476562 8.5 -0.78125 C 7.601562 -0.0820312 6.414062 0.265625 4.9375 0.265625 C 4.101562 0.265625 3.328125 0.164062 2.609375 -0.03125 C 1.898438 -0.238281 1.378906 -0.519531 1.046875 -0.875 C 0.960938 -1.101562 0.921875 -1.382812 0.921875 -1.71875 Z M 0.921875 -1.71875 "/></g></g></g></svg>