<svg xmlns="http://www.w3.org/2000/svg" xmlns:xlink="http://www.w3.org/1999/xlink" width="400" zoomAndPan="magnify" viewBox="0 0 300 299.999988" height="400" preserveAspectRatio="xMidYMid meet" version="1.0"><defs><clipPath id="871df5b93a"><path d="M 154 35.1875 L 186 35.1875 L 186 116 L 154 116 Z M 154 35.1875 " clip-rule="nonzero"/></clipPath><clipPath id="71c6a7114d"><path d="M 114 35.1875 L 146 35.1875 L 146 116 L 114 116 Z M 114 35.1875 " clip-rule="nonzero"/></clipPath><clipPath id="d419d6e282"><path d="M 41.023438 104 L 126 104 L 126 138 L 41.023438 138 Z M 41.023438 104 " clip-rule="nonzero"/></clipPath><clipPath id="99fc1f276b"><path d="M 41.023438 143 L 126 143 L 126 177 L 41.023438 177 Z M 41.023438 143 " clip-rule="nonzero"/></clipPath><clipPath id="fe61bc2085"><path d="M 154 165 L 186 165 L 186 245.9375 L 154 245.9375 Z M 154 165 " clip-rule="nonzero"/></clipPath><clipPath id="5a0b99cf04"><path d="M 114 165 L 146 165 L 146 245.9375 L 114 245.9375 Z M 114 165 " clip-rule="nonzero"/></clipPath></defs><g clip-path="url(#871df5b93a)"><path fill="#cbcf00" d="M 159.425781 109.824219 L 159.425781 94.699219 L 172.152344 87.871094 C 176.359375 85.613281 179.691406 82.425781 181.972656 78.617188 C 184.257812 74.8125 185.496094 69.84375 185.496094 65.0625 L 185.496094 35.1875 L 182.070312 37.160156 L 167.5625 45.460938 C 163.539062 47.746094 160.355469 50.933594 158.1875 54.667969 C 156.023438 58.425781 154.859375 65.703125 154.859375 70.339844 L 154.859375 84.328125 L 157.023438 83.160156 C 158.546875 82.351562 159.449219 80.855469 159.449219 79.117188 L 159.449219 70.339844 C 159.449219 66.511719 160.402344 62.96875 162.160156 59.921875 C 163.921875 56.878906 166.539062 54.285156 169.867188 52.382812 L 180.953125 46.03125 L 180.953125 65.0625 C 180.953125 68.984375 179.953125 72.648438 178.097656 75.742188 C 176.242188 78.855469 173.507812 81.449219 170.058594 83.304688 L 157.308594 90.128906 C 155.785156 90.941406 154.882812 92.4375 154.882812 94.175781 L 154.882812 115.011719 L 157.046875 113.84375 C 158.546875 113.058594 159.425781 111.5625 159.425781 109.824219 Z M 159.425781 109.824219 " fill-opacity="1" fill-rule="nonzero"/></g><g clip-path="url(#71c6a7114d)"><path fill="#cbcf00" d="M 127.839844 87.894531 L 140.5625 94.722656 L 140.5625 109.847656 C 140.5625 111.585938 141.445312 113.082031 142.992188 113.890625 L 145.15625 115.058594 L 145.15625 94.222656 C 145.15625 92.484375 144.25 90.988281 142.730469 90.179688 L 129.980469 83.351562 C 126.53125 81.496094 123.796875 78.902344 121.941406 75.789062 C 120.085938 72.695312 119.085938 69.03125 119.085938 65.109375 L 119.085938 46.082031 L 130.171875 52.429688 C 133.476562 54.332031 136.09375 56.925781 137.875 59.972656 C 139.636719 63.015625 140.589844 66.558594 140.589844 70.390625 L 140.589844 79.164062 C 140.589844 80.902344 141.492188 82.402344 143.015625 83.210938 L 145.179688 84.375 L 145.179688 70.390625 C 145.179688 65.75 144.011719 58.472656 141.847656 54.714844 C 139.660156 50.957031 136.496094 47.792969 132.476562 45.507812 L 117.96875 37.207031 L 114.542969 35.234375 L 114.542969 65.109375 C 114.542969 69.867188 115.78125 74.835938 118.0625 78.667969 C 120.300781 82.449219 123.628906 85.636719 127.839844 87.894531 Z M 127.839844 87.894531 " fill-opacity="1" fill-rule="nonzero"/></g><path fill="#cbcf00" d="M 91.683594 101.238281 L 98.417969 105.117188 L 103.816406 108.230469 L 103.886719 105.78125 C 103.933594 104.046875 103.101562 102.523438 101.605469 101.644531 L 100.722656 101.144531 L 93.992188 97.265625 C 90.6875 95.363281 88.070312 92.746094 86.308594 89.703125 C 84.550781 86.65625 83.621094 83.089844 83.644531 79.261719 L 83.691406 66.488281 L 100.175781 76.003906 C 103.578125 77.976562 106.242188 80.664062 108.003906 83.828125 C 109.761719 86.992188 110.664062 90.652344 110.523438 94.578125 L 110.070312 109.039062 C 110.023438 110.777344 110.855469 112.296875 112.355469 113.15625 L 130.40625 123.574219 L 130.480469 121.097656 C 130.527344 119.363281 129.695312 117.839844 128.195312 116.984375 L 115.089844 109.421875 L 115.542969 94.984375 C 115.707031 90.226562 114.613281 85.730469 112.449219 81.851562 C 110.285156 77.976562 106.597656 74.410156 102.484375 72.03125 L 82.550781 60.542969 L 76.582031 57.09375 L 76.558594 61.042969 L 76.488281 77.761719 C 76.460938 82.402344 77.628906 86.730469 79.769531 90.488281 C 81.957031 94.269531 87.664062 98.90625 91.683594 101.238281 Z M 91.683594 101.238281 " fill-opacity="1" fill-rule="nonzero"/><g clip-path="url(#d419d6e282)"><path fill="#cbcf00" d="M 66.949219 133.539062 C 71.0625 135.917969 75.988281 137.320312 80.433594 137.273438 C 84.882812 137.203125 89.308594 135.917969 93.375 133.394531 L 105.648438 125.785156 L 118.753906 133.347656 C 120.25 134.203125 121.988281 134.179688 123.460938 133.277344 L 125.554688 131.96875 L 107.503906 121.550781 C 106.003906 120.695312 104.269531 120.71875 102.792969 121.621094 L 90.496094 129.257812 C 87.167969 131.328125 83.550781 132.398438 79.933594 132.445312 C 76.320312 132.492188 72.65625 131.542969 69.253906 129.589844 L 52.773438 120.078125 L 63.808594 113.65625 C 67.113281 111.726562 70.660156 110.753906 74.179688 110.753906 C 77.699219 110.753906 81.242188 111.703125 84.550781 113.605469 L 91.28125 117.484375 L 92.160156 117.984375 C 93.660156 118.863281 95.394531 118.816406 96.871094 117.910156 L 98.964844 116.628906 L 93.5625 113.511719 L 86.832031 109.632812 C 82.8125 107.328125 75.9375 104.6875 71.585938 104.6875 C 67.257812 104.710938 62.929688 105.875 58.910156 108.207031 L 44.449219 116.628906 L 41.023438 118.625 L 46.992188 122.074219 Z M 66.949219 133.539062 " fill-opacity="1" fill-rule="nonzero"/></g><path fill="#cbcf00" d="M 115.066406 171.546875 L 128.171875 163.984375 C 129.671875 163.128906 130.527344 161.605469 130.457031 159.871094 L 130.382812 157.394531 L 112.355469 167.8125 C 110.855469 168.695312 110 170.214844 110.046875 171.929688 L 110.5 186.390625 C 110.617188 190.289062 109.738281 193.976562 107.976562 197.140625 C 106.21875 200.304688 103.554688 202.992188 100.152344 204.964844 L 83.667969 214.480469 L 83.621094 201.707031 C 83.597656 197.878906 84.550781 194.335938 86.285156 191.265625 C 88.046875 188.222656 90.640625 185.628906 93.96875 183.703125 L 100.699219 179.824219 L 101.578125 179.324219 C 103.078125 178.445312 103.933594 176.949219 103.863281 175.1875 L 103.792969 172.738281 L 98.394531 175.851562 L 91.660156 179.730469 C 87.640625 182.039062 81.933594 186.699219 79.769531 190.457031 C 77.605469 194.214844 76.460938 198.542969 76.488281 203.183594 L 76.558594 219.902344 L 76.582031 223.851562 L 82.550781 220.402344 L 102.460938 208.914062 C 106.574219 206.535156 110.261719 202.96875 112.425781 199.089844 C 114.589844 195.214844 115.683594 190.71875 115.519531 185.960938 Z M 115.066406 171.546875 " fill-opacity="1" fill-rule="nonzero"/><g clip-path="url(#99fc1f276b)"><path fill="#cbcf00" d="M 93.5625 167.480469 L 98.964844 164.363281 L 96.871094 163.082031 C 95.394531 162.175781 93.660156 162.128906 92.160156 163.007812 L 91.28125 163.507812 L 84.550781 167.386719 C 81.242188 169.289062 77.675781 170.261719 74.179688 170.238281 C 70.660156 170.238281 67.113281 169.265625 63.808594 167.339844 L 52.773438 160.914062 L 69.253906 151.402344 C 72.65625 149.425781 76.320312 148.476562 79.933594 148.546875 C 83.550781 148.59375 87.191406 149.664062 90.496094 151.734375 L 102.792969 159.371094 C 104.269531 160.296875 106.003906 160.296875 107.503906 159.441406 L 125.554688 149.023438 L 123.460938 147.714844 C 121.988281 146.8125 120.25 146.789062 118.753906 147.644531 L 105.648438 155.207031 L 93.375 147.597656 C 89.332031 145.074219 84.882812 143.789062 80.433594 143.71875 C 75.988281 143.648438 71.0625 145.050781 66.949219 147.453125 L 47.039062 158.941406 L 41.070312 162.390625 L 44.496094 164.390625 L 58.957031 172.808594 C 62.953125 175.140625 67.28125 176.304688 71.632812 176.328125 C 75.964844 176.328125 82.859375 173.710938 86.878906 171.382812 Z M 93.5625 167.480469 " fill-opacity="1" fill-rule="nonzero"/></g><g clip-path="url(#fe61bc2085)"><path fill="#cbcf00" d="M 172.175781 193.074219 L 159.449219 186.246094 L 159.449219 171.144531 C 159.449219 169.40625 158.546875 167.910156 157.023438 167.101562 L 154.859375 165.933594 L 154.859375 186.769531 C 154.859375 188.507812 155.761719 190.003906 157.285156 190.8125 L 170.035156 197.640625 C 173.484375 199.496094 176.21875 202.089844 178.074219 205.203125 C 179.929688 208.296875 180.929688 211.960938 180.929688 215.882812 L 180.929688 234.914062 L 169.84375 228.5625 C 166.539062 226.660156 163.921875 224.089844 162.136719 221.046875 C 160.378906 218 159.425781 214.457031 159.425781 210.628906 L 159.425781 201.851562 C 159.425781 200.113281 158.523438 198.617188 157 197.808594 L 154.835938 196.640625 L 154.835938 210.628906 C 154.835938 215.265625 156 222.542969 158.164062 226.300781 C 160.328125 230.058594 163.515625 233.222656 167.535156 235.507812 L 182.046875 243.808594 L 185.472656 245.78125 L 185.472656 215.90625 C 185.472656 211.152344 184.234375 206.179688 181.949219 202.351562 C 179.714844 198.519531 176.359375 195.332031 172.175781 193.074219 Z M 172.175781 193.074219 " fill-opacity="1" fill-rule="nonzero"/></g><g clip-path="url(#5a0b99cf04)"><path fill="#cbcf00" d="M 140.5625 171.144531 L 140.5625 186.269531 L 127.839844 193.097656 C 123.628906 195.332031 120.300781 198.542969 118.015625 202.351562 C 115.730469 206.179688 114.496094 211.152344 114.496094 215.90625 L 114.496094 245.78125 L 117.921875 243.808594 L 132.453125 235.507812 C 136.472656 233.222656 139.660156 230.035156 141.824219 226.300781 C 143.988281 222.542969 145.15625 215.265625 145.15625 210.628906 L 145.15625 196.640625 L 142.992188 197.808594 C 141.46875 198.617188 140.5625 200.113281 140.5625 201.851562 L 140.5625 210.628906 C 140.5625 214.457031 139.613281 218 137.851562 221.046875 C 136.09375 224.089844 133.476562 226.683594 130.144531 228.5625 L 119.0625 234.914062 L 119.0625 215.882812 C 119.0625 211.960938 120.0625 208.296875 121.917969 205.203125 C 123.773438 202.089844 126.507812 199.496094 129.957031 197.640625 L 142.703125 190.8125 C 144.226562 190.003906 145.132812 188.507812 145.132812 186.769531 L 145.132812 165.933594 L 142.964844 167.101562 C 141.46875 167.910156 140.5625 169.40625 140.5625 171.144531 Z M 140.5625 171.144531 " fill-opacity="1" fill-rule="nonzero"/></g><path fill="#cbcf00" d="M 252.949219 158.917969 L 233.042969 147.429688 C 228.925781 145.050781 224.003906 143.625 219.554688 143.695312 C 215.109375 143.765625 210.683594 145.050781 206.617188 147.574219 L 194.34375 155.183594 L 181.238281 147.621094 C 179.738281 146.765625 178.003906 146.765625 176.527344 147.691406 L 174.433594 149 L 192.488281 159.417969 C 193.984375 160.273438 195.722656 160.25 197.195312 159.347656 L 209.496094 151.710938 C 212.824219 149.640625 216.441406 148.570312 220.054688 148.523438 C 223.671875 148.476562 227.332031 149.425781 230.734375 151.378906 L 247.21875 160.890625 L 236.179688 167.3125 C 232.875 169.242188 229.332031 170.214844 225.8125 170.214844 C 222.289062 170.214844 218.746094 169.265625 215.441406 167.363281 L 208.710938 163.484375 L 207.828125 162.984375 C 206.332031 162.105469 204.59375 162.152344 203.121094 163.058594 L 201.027344 164.339844 L 206.425781 167.457031 L 213.15625 171.335938 C 217.175781 173.640625 224.050781 176.28125 228.402344 176.28125 C 232.734375 176.257812 237.0625 175.09375 241.082031 172.761719 L 255.542969 164.339844 L 258.96875 162.34375 Z M 252.949219 158.917969 " fill-opacity="1" fill-rule="nonzero"/><path fill="#cbcf00" d="M 208.304688 179.730469 L 201.574219 175.851562 L 196.175781 172.738281 L 196.125 175.1875 C 196.078125 176.921875 196.910156 178.445312 198.410156 179.324219 L 199.289062 179.824219 L 206.019531 183.703125 C 209.328125 185.605469 211.945312 188.222656 213.679688 191.265625 C 215.441406 194.3125 216.367188 197.878906 216.34375 201.683594 L 216.296875 214.457031 L 199.8125 204.941406 C 196.414062 202.96875 193.75 200.28125 191.988281 197.117188 C 190.226562 193.953125 189.324219 190.289062 189.46875 186.367188 L 189.917969 171.90625 C 189.964844 170.167969 189.132812 168.644531 187.613281 167.789062 L 169.558594 157.371094 L 169.488281 159.84375 C 169.441406 161.582031 170.273438 163.105469 171.769531 163.960938 L 184.875 171.523438 L 184.402344 185.960938 C 184.234375 190.71875 185.328125 195.214844 187.492188 199.089844 C 189.65625 202.96875 193.34375 206.535156 197.457031 208.914062 L 217.367188 220.402344 L 223.335938 223.851562 L 223.359375 219.902344 L 223.433594 203.183594 C 223.457031 198.542969 222.289062 194.214844 220.148438 190.457031 C 218.058594 186.699219 212.324219 182.0625 208.304688 179.730469 Z M 208.304688 179.730469 " fill-opacity="1" fill-rule="nonzero"/><path fill="#cbcf00" d="M 184.925781 109.421875 L 171.816406 116.984375 C 170.320312 117.839844 169.464844 119.363281 169.535156 121.097656 L 169.605469 123.574219 L 187.660156 113.15625 C 189.15625 112.273438 190.015625 110.753906 189.964844 109.039062 L 189.515625 94.578125 C 189.394531 90.652344 190.277344 86.992188 192.035156 83.828125 C 193.796875 80.664062 196.4375 77.976562 199.859375 76.003906 L 216.34375 66.488281 L 216.390625 79.261719 C 216.414062 83.089844 215.464844 86.632812 213.726562 89.703125 C 211.96875 92.746094 209.375 95.339844 206.046875 97.265625 L 199.3125 101.144531 L 198.433594 101.644531 C 196.933594 102.523438 196.078125 104.019531 196.152344 105.757812 L 196.222656 108.207031 L 201.621094 105.089844 L 208.351562 101.214844 C 212.371094 98.90625 218.082031 94.246094 220.246094 90.488281 C 222.410156 86.730469 223.550781 82.402344 223.527344 77.761719 L 223.457031 61.042969 L 223.433594 57.09375 L 217.460938 60.542969 L 197.554688 72.03125 C 193.4375 74.410156 189.753906 77.976562 187.585938 81.851562 C 185.421875 85.730469 184.328125 90.226562 184.496094 94.984375 Z M 184.925781 109.421875 " fill-opacity="1" fill-rule="nonzero"/><path fill="#cbcf00" d="M 206.425781 113.488281 L 201.027344 116.605469 L 203.121094 117.886719 C 204.59375 118.792969 206.332031 118.839844 207.828125 117.960938 L 208.710938 117.460938 L 215.441406 113.582031 C 218.746094 111.679688 222.316406 110.707031 225.8125 110.730469 C 229.332031 110.730469 232.875 111.703125 236.179688 113.628906 L 247.21875 120.054688 L 230.734375 129.566406 C 227.332031 131.542969 223.671875 132.492188 220.054688 132.421875 C 216.441406 132.375 212.800781 131.304688 209.496094 129.234375 L 197.195312 121.597656 C 195.722656 120.671875 193.984375 120.648438 192.488281 121.527344 L 174.433594 131.945312 L 176.527344 133.230469 C 178.003906 134.132812 179.738281 134.179688 181.238281 133.300781 L 194.34375 125.738281 L 206.617188 133.347656 C 210.660156 135.871094 215.109375 137.15625 219.554688 137.226562 C 224.003906 137.296875 228.925781 135.894531 233.042969 133.492188 L 252.949219 122.003906 L 258.921875 118.554688 L 255.496094 116.554688 L 241.035156 108.136719 C 237.039062 105.804688 232.707031 104.640625 228.355469 104.617188 C 224.027344 104.617188 217.128906 107.234375 213.109375 109.5625 Z M 206.425781 113.488281 " fill-opacity="1" fill-rule="nonzero"/></svg>