<svg xmlns="http://www.w3.org/2000/svg" xmlns:xlink="http://www.w3.org/1999/xlink" width="300" zoomAndPan="magnify" viewBox="0 0 224.87999 30.000001" height="40" preserveAspectRatio="xMidYMid meet" version="1.0"><defs><g/></defs><g fill="#19647e" fill-opacity="1"><g transform="translate(7.027938, 15.967744)"><g><path d="M 2.933594 0.144531 C 4.519531 0.144531 5.550781 -0.550781 5.550781 -1.800781 C 5.550781 -3.085938 4.453125 -3.550781 3.273438 -3.769531 C 2.195312 -3.945312 1.664062 -4.191406 1.664062 -4.730469 C 1.664062 -5.136719 1.902344 -5.546875 2.878906 -5.546875 C 3.75 -5.546875 4.132812 -5.144531 4.132812 -4.648438 L 5.308594 -4.648438 C 5.308594 -5.800781 4.492188 -6.574219 2.890625 -6.574219 C 1.222656 -6.574219 0.488281 -5.777344 0.488281 -4.734375 C 0.488281 -3.402344 1.804688 -3.015625 2.882812 -2.792969 C 3.773438 -2.621094 4.359375 -2.398438 4.359375 -1.804688 C 4.359375 -1.167969 3.894531 -0.84375 2.929688 -0.84375 C 2.023438 -0.84375 1.496094 -1.328125 1.496094 -1.925781 L 0.320312 -1.925781 C 0.320312 -0.921875 1.078125 0.144531 2.933594 0.144531 Z M 2.933594 0.144531 "/></g></g></g><g fill="#19647e" fill-opacity="1"><g transform="translate(18.682015, 15.967744)"><g><path d="M 5.210938 0 L 5.210938 -1.054688 L 1.941406 -1.054688 L 1.941406 -2.769531 L 4.730469 -2.769531 L 4.730469 -3.761719 L 1.941406 -3.761719 L 1.941406 -5.371094 L 5.167969 -5.371094 L 5.167969 -6.425781 L 0.765625 -6.425781 L 0.765625 0 Z M 5.210938 0 "/></g></g></g><g fill="#19647e" fill-opacity="1"><g transform="translate(30.00545, 15.967744)"><g><path d="M 1.941406 0 L 1.941406 -2.277344 L 3.042969 -2.277344 C 3.128906 -2.277344 3.207031 -2.277344 3.292969 -2.28125 L 4.5625 0 L 5.914062 0 L 4.460938 -2.460938 C 5.25 -2.734375 5.769531 -3.425781 5.769531 -4.332031 C 5.769531 -5.582031 4.835938 -6.425781 3.539062 -6.425781 L 0.765625 -6.425781 L 0.765625 0 Z M 1.941406 -5.375 L 3.492188 -5.375 C 4.113281 -5.375 4.59375 -4.917969 4.59375 -4.332031 C 4.59375 -3.703125 4.121094 -3.273438 3.496094 -3.269531 L 1.941406 -3.269531 Z M 1.941406 -5.375 "/></g></g></g><g fill="#19647e" fill-opacity="1"><g transform="translate(41.928769, 15.967744)"><g><path d="M 5.210938 0 L 5.210938 -1.054688 L 1.941406 -1.054688 L 1.941406 -2.769531 L 4.730469 -2.769531 L 4.730469 -3.761719 L 1.941406 -3.761719 L 1.941406 -5.371094 L 5.167969 -5.371094 L 5.167969 -6.425781 L 0.765625 -6.425781 L 0.765625 0 Z M 5.210938 0 "/></g></g></g><g fill="#19647e" fill-opacity="1"><g transform="translate(53.252204, 15.967744)"><g><path d="M 1.941406 0 L 1.941406 -4.492188 L 5.441406 0 L 6.449219 0 L 6.449219 -6.425781 L 5.277344 -6.425781 L 5.277344 -1.925781 L 1.777344 -6.425781 L 0.765625 -6.425781 L 0.765625 0 Z M 1.941406 0 "/></g></g></g><g fill="#19647e" fill-opacity="1"><g transform="translate(66.271368, 15.967744)"><g><path d="M 5.210938 0 L 5.210938 -1.054688 L 1.941406 -1.054688 L 1.941406 -2.769531 L 4.730469 -2.769531 L 4.730469 -3.761719 L 1.941406 -3.761719 L 1.941406 -5.371094 L 5.167969 -5.371094 L 5.167969 -6.425781 L 0.765625 -6.425781 L 0.765625 0 Z M 5.210938 0 "/></g></g></g><g fill="#19647e" fill-opacity="1"><g transform="translate(77.5948, 15.967744)"><g/></g></g><g fill="#19647e" fill-opacity="1"><g transform="translate(85.758246, 15.967744)"><g><path d="M 2.933594 0.144531 C 4.519531 0.144531 5.550781 -0.550781 5.550781 -1.800781 C 5.550781 -3.085938 4.453125 -3.550781 3.273438 -3.769531 C 2.195312 -3.945312 1.664062 -4.191406 1.664062 -4.730469 C 1.664062 -5.136719 1.902344 -5.546875 2.878906 -5.546875 C 3.75 -5.546875 4.132812 -5.144531 4.132812 -4.648438 L 5.308594 -4.648438 C 5.308594 -5.800781 4.492188 -6.574219 2.890625 -6.574219 C 1.222656 -6.574219 0.488281 -5.777344 0.488281 -4.734375 C 0.488281 -3.402344 1.804688 -3.015625 2.882812 -2.792969 C 3.773438 -2.621094 4.359375 -2.398438 4.359375 -1.804688 C 4.359375 -1.167969 3.894531 -0.84375 2.929688 -0.84375 C 2.023438 -0.84375 1.496094 -1.328125 1.496094 -1.925781 L 0.320312 -1.925781 C 0.320312 -0.921875 1.078125 0.144531 2.933594 0.144531 Z M 2.933594 0.144531 "/></g></g></g><g fill="#19647e" fill-opacity="1"><g transform="translate(97.412325, 15.967744)"><g><path d="M 3.289062 0 L 3.289062 -5.375 L 5.203125 -5.375 L 5.203125 -6.425781 L 0.203125 -6.425781 L 0.203125 -5.375 L 2.117188 -5.375 L 2.117188 0 Z M 3.289062 0 "/></g></g></g><g fill="#19647e" fill-opacity="1"><g transform="translate(108.6224, 15.967744)"><g><path d="M 6.503906 0 L 3.832031 -6.429688 L 2.714844 -6.429688 L 0.0429688 0 L 1.285156 0 L 1.796875 -1.242188 L 4.753906 -1.242188 L 5.261719 0 Z M 3.230469 -4.757812 L 3.269531 -4.914062 L 3.285156 -4.914062 L 3.3125 -4.757812 L 4.351562 -2.226562 L 2.195312 -2.226562 Z M 3.230469 -4.757812 "/></g></g></g><g fill="#19647e" fill-opacity="1"><g transform="translate(120.98028, 15.967744)"><g><path d="M 3.773438 0 L 3.773438 -2.453125 L 6.3125 -6.425781 L 4.925781 -6.425781 L 3.195312 -3.492188 L 3.1875 -3.492188 L 1.441406 -6.425781 L 0.0703125 -6.425781 L 2.597656 -2.441406 L 2.597656 0 Z M 3.773438 0 "/></g></g></g><g fill="#19647e" fill-opacity="1"><g transform="translate(133.168117, 15.967744)"><g/></g></g><g fill="#19647e" fill-opacity="1"><g transform="translate(141.331567, 15.967744)"><g><path d="M 1.941406 0 L 1.941406 -2.277344 L 3.042969 -2.277344 C 3.128906 -2.277344 3.207031 -2.277344 3.292969 -2.28125 L 4.5625 0 L 5.914062 0 L 4.460938 -2.460938 C 5.25 -2.734375 5.769531 -3.425781 5.769531 -4.332031 C 5.769531 -5.582031 4.835938 -6.425781 3.539062 -6.425781 L 0.765625 -6.425781 L 0.765625 0 Z M 1.941406 -5.375 L 3.492188 -5.375 C 4.113281 -5.375 4.59375 -4.917969 4.59375 -4.332031 C 4.59375 -3.703125 4.121094 -3.273438 3.496094 -3.269531 L 1.941406 -3.269531 Z M 1.941406 -5.375 "/></g></g></g><g fill="#19647e" fill-opacity="1"><g transform="translate(153.25489, 15.967744)"><g><path d="M 5.210938 0 L 5.210938 -1.054688 L 1.941406 -1.054688 L 1.941406 -2.769531 L 4.730469 -2.769531 L 4.730469 -3.761719 L 1.941406 -3.761719 L 1.941406 -5.371094 L 5.167969 -5.371094 L 5.167969 -6.425781 L 0.765625 -6.425781 L 0.765625 0 Z M 5.210938 0 "/></g></g></g><g fill="#19647e" fill-opacity="1"><g transform="translate(164.578327, 15.967744)"><g><path d="M 1.941406 0 L 1.941406 -4.492188 L 5.441406 0 L 6.449219 0 L 6.449219 -6.425781 L 5.277344 -6.425781 L 5.277344 -1.925781 L 1.777344 -6.425781 L 0.765625 -6.425781 L 0.765625 0 Z M 1.941406 0 "/></g></g></g><g fill="#19647e" fill-opacity="1"><g transform="translate(177.597491, 15.967744)"><g><path d="M 3.289062 0 L 3.289062 -5.375 L 5.203125 -5.375 L 5.203125 -6.425781 L 0.203125 -6.425781 L 0.203125 -5.375 L 2.117188 -5.375 L 2.117188 0 Z M 3.289062 0 "/></g></g></g><g fill="#19647e" fill-opacity="1"><g transform="translate(188.807566, 15.967744)"><g><path d="M 6.503906 0 L 3.832031 -6.429688 L 2.714844 -6.429688 L 0.0429688 0 L 1.285156 0 L 1.796875 -1.242188 L 4.753906 -1.242188 L 5.261719 0 Z M 3.230469 -4.757812 L 3.269531 -4.914062 L 3.285156 -4.914062 L 3.3125 -4.757812 L 4.351562 -2.226562 L 2.195312 -2.226562 Z M 3.230469 -4.757812 "/></g></g></g><g fill="#19647e" fill-opacity="1"><g transform="translate(201.165436, 15.967744)"><g><path d="M 4.84375 0 L 4.84375 -1.054688 L 1.941406 -1.054688 L 1.941406 -6.425781 L 0.765625 -6.425781 L 0.765625 0 Z M 4.84375 0 "/></g></g></g><g fill="#19647e" fill-opacity="1"><g transform="translate(212.002363, 15.967744)"><g><path d="M 2.933594 0.144531 C 4.519531 0.144531 5.550781 -0.550781 5.550781 -1.800781 C 5.550781 -3.085938 4.453125 -3.550781 3.273438 -3.769531 C 2.195312 -3.945312 1.664062 -4.191406 1.664062 -4.730469 C 1.664062 -5.136719 1.902344 -5.546875 2.878906 -5.546875 C 3.75 -5.546875 4.132812 -5.144531 4.132812 -4.648438 L 5.308594 -4.648438 C 5.308594 -5.800781 4.492188 -6.574219 2.890625 -6.574219 C 1.222656 -6.574219 0.488281 -5.777344 0.488281 -4.734375 C 0.488281 -3.402344 1.804688 -3.015625 2.882812 -2.792969 C 3.773438 -2.621094 4.359375 -2.398438 4.359375 -1.804688 C 4.359375 -1.167969 3.894531 -0.84375 2.929688 -0.84375 C 2.023438 -0.84375 1.496094 -1.328125 1.496094 -1.925781 L 0.320312 -1.925781 C 0.320312 -0.921875 1.078125 0.144531 2.933594 0.144531 Z M 2.933594 0.144531 "/></g></g></g></svg>